<?xml version="1.0" encoding="UTF-8"?>
<svg id="Layer_2" data-name="Layer 2" xmlns="http://www.w3.org/2000/svg" viewBox="0 0 637.61 529.5">
  <defs>
    <style>
      .cls-1 {
        fill: #28638e;
      }

      .cls-2 {
        fill: #029602;
      }
    </style>
  </defs>
  <g id="Layer_1_Max_Pro_India_Layer_5_Layer_4_Levels_1_Layer_5_Layer_3_Layer_2_Color_balance_1_Image" data-name="Layer 1 + Max + Pro + India + Layer 5 + Layer 4 + Levels 1 + Layer 5 + Layer 3 + Layer 2 + Color balance 1 Image">
    <g>
      <path class="cls-1" d="M180.63,206.96c-11.67-.98-23.34-8.37-34.56-10.09-.94-.14-1.19-1.51-2.46.24-7.4,110.4,82.06,208.36,192.42,211.94l15.24,31.06c-19.15,1.89-36.87,2.99-56.12,1.09-82.46-8.15-155.63-63.78-184.48-141.36-17.61-47.36-18.88-96.72-4.63-145.19,9.23.5,68.37,23.73,71.93,21.78"/>
      <path class="cls-1" d="M637.61,494.57v33.78l-12.39-.15c-2.21-.75-1.78-3.41-1.79-5.31-.85-.96-7.36,3.91-9.04,4.58-21.15,8.42-31.84-18.64-15.32-28.39,6.02-3.55,15.4-4.24,22.19-5.62-2.71-12.71-14.61-6.58-22.92-3.72l-5.42-10.42c13.26-6.03,31.33-11.31,41.26,2.87l3.43,12.37ZM621.26,503.28c-13.18-2.68-22.53,16.11-6.04,13.02,7.18-1.34,6.36-7.13,6.04-13.02Z"/>
      <polygon class="cls-1" points="18.53 456.43 34.87 501.1 49.05 456.43 67.58 456.43 67.58 528.34 52.32 528.34 54.49 476.05 38.71 520.74 29 521.87 13.62 476.03 15.26 528.34 0 528.34 0 456.43 18.53 456.43"/>
      <path class="cls-1" d="M549.33,452.08v76.27l-12.96-.13-1.77-5.33c-26.88,19.96-44.02-13.27-32.73-37.07,4.51-9.49,15.44-15.46,25.68-11.42,2.73,1.08,3.66,3.77,6.51,3.82l-1.08-26.14h16.35ZM522.88,486.04c-12.61,2.51-9.35,38.4,6.73,28.59,4.66-2.85,4.14-17.44,3.41-22.83-.64-4.76-5.55-6.67-10.14-5.75Z"/>
      <path class="cls-2" d="M215.81,504.37v23.97h-16.35v-71.91h29.97c1.58,0,8.81,2.52,10.76,3.41,10.38,4.71,13.14,15.38,11.09,26.06-3.24,16.86-20.99,19.67-35.47,18.47ZM215.81,469.51v21.79c26.66,4.85,27.19-26.92,0-21.79Z"/>
      <path class="cls-1" d="M486.11,528.34h-16.35v-37.59c0-7.42-16.35-2.54-16.35,1.09v36.5h-16.35v-54.48l13.16.47,2.65,7.14c6.11-7.89,20.54-11.7,28.25-4.25,1.54,1.48,4.99,8.45,4.99,10.26v40.86Z"/>
      <path class="cls-2" d="M326.73,473.05c36.52-4.35,40.24,54.78,4.02,56.42-33.38,1.51-37.55-52.43-4.02-56.42ZM327.78,486.04c-10.24,2.08-10.74,30.16,1.92,30.16,13.63,0,12.87-33.16-1.92-30.16Z"/>
      <path class="cls-1" d="M127.52,528.34l-12.39-.15-1.79-5.31c-.85-.96-7.36,3.91-9.04,4.58-21.15,8.42-31.84-18.64-15.32-28.39,6.02-3.55,15.4-4.24,22.19-5.62-2.71-12.71-14.61-6.58-22.92-3.72l-5.42-10.42c11.84-5.87,33.06-11.24,41.26,2.87,1.3,2.23,3.43,10.66,3.43,12.91v33.23ZM111.17,503.28c-13.18-2.68-22.53,16.11-6.04,13.02,7.18-1.34,6.36-7.13,6.04-13.02Z"/>
      <polygon class="cls-1" points="171.12 473.87 187.47 473.87 173.39 501.65 188.56 528.34 171.12 528.34 162.39 509.82 152.05 528.34 136.24 528.34 152.38 500.39 137.33 473.87 154.23 473.87 164.03 491.28 171.12 473.87"/>
      <rect class="cls-1" x="405.46" y="457.52" width="16.35" height="70.82"/>
      <path class="cls-2" d="M262.67,473.87h14.17s.55,8.73.55,8.73c2.17-.05,3.68-3.97,5.44-5.45,5.02-4.21,10.63-5.62,16.89-3.25l-3.21,12.57c-6.43.68-9.92-.13-14.24,5.38-.61.77-3.27,5.13-3.27,5.45v31.05h-16.35v-54.48Z"/>
      <rect class="cls-1" x="562.41" y="473.87" width="16.35" height="54.48"/>
      <path class="cls-2" d="M177.98,176.44c28.74-14.42,57.49-28.83,86.23-43.25l126.31,346.12L236.34,178.49c-18.57,9.49-37.14,18.98-55.71,28.47-.88-10.17-1.77-20.35-2.65-30.52Z"/>
      <path class="cls-1" d="M164.96,117.38l-20.71-34.26S251.1-54.32,417.97,24.27c0,0,78.21,34.84,107.63,121.18,0,0,25.94,71.24,2.32,145.96,0,0-16.26,56.14-58.07,91.37,0,0-35.62,33.3-65.82,42.59l-13.94-34.46s63.88-22.46,97.56-98.73c0,0,15.1-32.13,13.94-72.4,0,0,3.87-73.95-58.85-133.18,0,0-50.08-44.14-101.7-47.23,0,0-51.62-8.13-99.62,15.49,0,0-36.01,13.55-58.85,41.43l-17.62,21.1Z"/>
    </g>
  </g>
</svg>