<svg xmlns="http://www.w3.org/2000/svg" xmlns:xlink="http://www.w3.org/1999/xlink" width="1366" zoomAndPan="magnify" viewBox="0 0 1024.5 576" height="768" preserveAspectRatio="xMidYMid meet" version="1.2"><defs><clipPath id="784aa96bd6"><path d="M 48 0.140625 L 424 0.140625 L 424 205 L 48 205 Z M 48 0.140625 "/></clipPath><filter x="0%" y="0%" width="100%" filterUnits="objectBoundingBox" id="e8e7303b6e" height="100%"><feColorMatrix values="0 0 0 0 1 0 0 0 0 1 0 0 0 0 1 0 0 0 1 0" type="matrix" in="SourceGraphic"/></filter><clipPath id="d965d201a5"><path d="M 0.695312 0.140625 L 354 0.140625 L 354 202 L 0.695312 202 Z M 0.695312 0.140625 "/></clipPath><clipPath id="f3479ece1a"><path d="M 314 175 L 375.394531 175 L 375.394531 204.378906 L 314 204.378906 Z M 314 175 "/></clipPath><clipPath id="f7300aa401"><rect x="0" width="376" y="0" height="205"/></clipPath><clipPath id="63d1f3151d"><path d="M 83 482 L 436 482 L 436 575.859375 L 83 575.859375 Z M 83 482 "/></clipPath><clipPath id="750846bc36"><path d="M 0.238281 0.144531 L 352.867188 0.144531 L 352.867188 93.859375 L 0.238281 93.859375 Z M 0.238281 0.144531 "/></clipPath><clipPath id="37a754729f"><rect x="0" width="353" y="0" height="94"/></clipPath><clipPath id="fc89477a72"><path d="M 456 32 L 569 32 L 569 85.855469 L 456 85.855469 Z M 456 32 "/></clipPath><clipPath id="c31e2e4cb0"><path d="M 304 0.425781 L 424 0.425781 L 424 46 L 304 46 Z M 304 0.425781 "/></clipPath><clipPath id="3572a925c8"><rect x="0" width="570" y="0" height="87"/></clipPath><clipPath id="fe098ee0a8"><path d="M 744 0.140625 L 1024 0.140625 L 1024 279 L 744 279 Z M 744 0.140625 "/></clipPath><clipPath id="0675b4e029"><path d="M 59 0.140625 L 280 0.140625 L 280 254 L 59 254 Z M 59 0.140625 "/></clipPath><clipPath id="1a332a9daf"><path d="M 68.09375 -52.472656 L 408.050781 175.460938 L 339.585938 277.574219 L -0.371094 49.636719 Z M 68.09375 -52.472656 "/></clipPath><clipPath id="6e238c1fab"><path d="M 68.09375 -52.472656 L 408.050781 175.460938 L 339.585938 277.574219 L -0.371094 49.636719 Z M 68.09375 -52.472656 "/></clipPath><clipPath id="d117ccdb61"><path d="M 41 0.140625 L 280 0.140625 L 280 267 L 41 267 Z M 41 0.140625 "/></clipPath><clipPath id="fd5c636073"><path d="M 68.09375 -52.472656 L 408.050781 175.460938 L 339.585938 277.574219 L -0.371094 49.636719 Z M 68.09375 -52.472656 "/></clipPath><clipPath id="217961556b"><path d="M 68.09375 -52.472656 L 408.050781 175.460938 L 339.585938 277.574219 L -0.371094 49.636719 Z M 68.09375 -52.472656 "/></clipPath><clipPath id="d0bbf44c55"><rect x="0" width="280" y="0" height="279"/></clipPath></defs><g id="f8164024a9"><g clip-rule="nonzero" clip-path="url(#784aa96bd6)"><g mask="url(#b0d45bb78f)" transform="matrix(1,0,0,1,48,-0.000000000000058398)"><g clip-path="url(#f7300aa401)"><g clip-rule="nonzero" clip-path="url(#d965d201a5)"><path style=" stroke:none;fill-rule:nonzero;fill:#8750f7;fill-opacity:1;" d="M 177.660156 125.933594 C 173.519531 126.351562 169.335938 126.769531 165.191406 127.230469 C 159.710938 127.816406 154.226562 128.445312 148.746094 129.070312 C 144.183594 129.574219 139.625 130.078125 135.0625 130.746094 C 131.632812 131.25 128.285156 132.210938 124.851562 132.585938 C 119.871094 133.089844 115.144531 134.761719 110.332031 135.851562 C 107.027344 136.605469 103.71875 137.230469 100.457031 138.109375 C 96.3125 139.242188 92.253906 140.664062 88.152344 141.835938 C 81.582031 143.675781 75.390625 146.269531 69.867188 150.371094 C 67.773438 151.921875 65.933594 153.675781 65.347656 156.3125 C 65.136719 157.152344 65.179688 158.28125 65.554688 159.035156 C 67.734375 163.300781 71.332031 165.980469 75.765625 167.613281 C 79.574219 169.035156 83.632812 169.203125 87.652344 169.703125 C 95.601562 170.667969 103.550781 171.546875 111.585938 171.878906 C 118.867188 172.171875 126.148438 173.011719 133.429688 173.554688 C 140.667969 174.097656 147.910156 174.558594 155.148438 175.019531 C 155.566406 175.0625 155.984375 175.144531 156.402344 175.1875 C 156.402344 175.3125 156.402344 175.4375 156.402344 175.5625 C 155.398438 175.6875 154.394531 175.855469 153.347656 175.898438 C 144.269531 176.527344 135.273438 175.730469 126.234375 175.0625 C 122.300781 174.769531 118.324219 174.726562 114.390625 174.515625 C 109.871094 174.308594 105.351562 174.183594 100.832031 173.847656 C 95.644531 173.46875 90.453125 172.800781 85.265625 172.382812 C 81.667969 172.089844 78.070312 171.671875 74.636719 170.457031 C 69.40625 168.574219 65.222656 165.394531 62.628906 160.371094 C 61.789062 158.78125 61.75 157.109375 62.292969 155.394531 C 63.214844 152.296875 65.222656 149.996094 67.691406 148.113281 C 73.925781 143.425781 81.082031 140.707031 88.613281 138.863281 C 93.132812 137.734375 97.609375 136.351562 102.128906 135.183594 C 105.644531 134.261719 109.242188 133.589844 112.800781 132.753906 C 114.015625 132.460938 115.1875 132 116.441406 131.75 C 122.300781 130.535156 128.199219 129.324219 134.101562 128.234375 C 136.402344 127.816406 138.785156 127.816406 141.128906 127.523438 C 146.945312 126.769531 152.722656 125.851562 158.539062 125.140625 C 165.734375 124.300781 172.976562 123.632812 180.214844 122.921875 C 184.691406 122.460938 189.210938 122.085938 193.6875 121.5 C 197.035156 121.078125 200.34375 120.328125 203.691406 119.78125 C 208.125 119.070312 212.519531 118.316406 216.953125 117.730469 C 218.796875 117.480469 220.679688 117.566406 222.519531 117.398438 C 224.738281 117.1875 226.914062 116.9375 229.089844 116.6875 C 232.394531 116.308594 235.703125 115.765625 239.050781 115.640625 C 250.347656 115.179688 261.644531 114.929688 272.902344 114.425781 C 279.472656 114.132812 285.957031 112.917969 292.320312 111.289062 C 297.296875 109.992188 302.277344 108.902344 307.257812 107.605469 C 310.101562 106.851562 312.949219 105.929688 315.710938 104.84375 C 316.714844 104.46875 317.59375 103.460938 318.261719 102.542969 C 319.058594 101.453125 318.722656 100.910156 317.71875 100.03125 C 313.828125 96.765625 309.140625 95.34375 304.371094 94.214844 C 297.632812 92.625 290.894531 91.203125 283.949219 90.699219 C 280.644531 90.449219 277.421875 89.777344 274.117188 89.402344 C 268.96875 88.773438 263.78125 88.1875 258.589844 87.5625 C 251.601562 86.722656 244.613281 85.886719 237.667969 85.132812 C 235.828125 84.925781 233.945312 85.050781 232.101562 84.925781 C 226.285156 84.507812 220.511719 84.089844 214.695312 83.753906 C 208.375 83.417969 202.097656 83.878906 195.78125 83.921875 C 193.394531 83.921875 190.96875 84.589844 188.582031 84.757812 C 186.199219 84.925781 183.8125 84.882812 181.46875 84.757812 C 178.332031 84.632812 175.191406 84.382812 172.054688 84.089844 C 169.375 83.835938 166.738281 83.375 164.101562 83.042969 C 163.894531 83 163.644531 83 163.433594 83 C 159.125 83 154.855469 82.917969 150.546875 83.042969 C 143.265625 83.25 135.941406 83.667969 128.660156 83.878906 C 121.296875 84.089844 113.929688 84.296875 106.523438 84.339844 C 101.960938 84.339844 97.402344 84.046875 92.839844 83.878906 C 84.050781 83.542969 75.265625 83.628906 66.519531 84.003906 C 57.816406 84.382812 49.109375 84.632812 40.40625 84.714844 C 36.054688 84.757812 31.660156 84.589844 27.433594 83.210938 C 25.636719 82.625 24.085938 81.660156 23.5 79.734375 C 22.789062 77.476562 23.710938 75.425781 25.929688 74.339844 C 29.109375 72.746094 32.539062 71.867188 36.097656 71.535156 C 41.914062 70.992188 47.730469 70.277344 53.546875 69.820312 C 56.351562 69.609375 59.152344 69.945312 62 69.945312 C 68.527344 69.945312 75.054688 69.527344 81.5 68.480469 C 86.980469 67.601562 92.503906 67.097656 97.988281 66.21875 C 104.976562 65.089844 111.964844 63.667969 118.953125 62.496094 C 124.515625 61.574219 129.914062 60.027344 135.105469 57.765625 C 137.613281 56.679688 140.042969 55.421875 142.425781 54.042969 C 143.390625 53.5 144.101562 52.410156 144.8125 51.53125 C 144.9375 51.363281 144.769531 50.820312 144.5625 50.570312 C 143.097656 48.726562 141.171875 47.515625 138.996094 46.550781 C 131.671875 43.371094 123.972656 41.488281 116.148438 39.984375 C 111.546875 39.105469 106.984375 38.265625 102.421875 37.222656 C 99.953125 36.636719 98.195312 35.042969 96.816406 32.867188 C 95.394531 30.652344 93.132812 29.394531 90.664062 28.894531 C 86.5625 28.054688 82.421875 27.636719 78.277344 27.011719 C 76.980469 26.800781 75.640625 26.59375 74.386719 26.257812 C 71.414062 25.503906 68.484375 25.585938 65.472656 26.007812 C 61.957031 26.507812 58.359375 26.59375 54.800781 27.050781 C 57.398438 27.09375 59.992188 27.050781 62.585938 27.21875 C 67.773438 27.554688 73.046875 27.636719 78.152344 28.476562 C 82.210938 29.144531 86.101562 30.734375 89.996094 32.074219 C 91.753906 32.703125 92.757812 34.25 93.132812 36.050781 C 93.46875 37.804688 94.515625 38.851562 95.976562 39.648438 C 99.117188 41.363281 102.296875 42.953125 105.8125 43.832031 C 107.066406 44.125 108.199219 44.753906 109.410156 45.296875 C 111.210938 46.09375 113.007812 46.886719 114.808594 47.683594 C 117.027344 48.6875 118.953125 49.898438 119.246094 52.660156 C 119.371094 53.875 119.246094 54.921875 118.40625 55.714844 C 117.445312 56.59375 116.398438 57.515625 115.1875 58.019531 C 107.027344 61.449219 98.488281 63.582031 89.617188 64.210938 C 83.757812 64.628906 77.941406 65.007812 72.085938 65.257812 C 70.410156 65.339844 68.695312 65.007812 66.980469 64.839844 C 66.855469 64.839844 66.726562 64.753906 66.308594 64.546875 C 67.605469 64.421875 68.609375 64.296875 69.574219 64.167969 C 78.445312 63.164062 87.316406 62.246094 96.1875 61.074219 C 102.464844 60.234375 108.449219 58.144531 114.308594 55.84375 C 114.894531 55.589844 115.4375 55.214844 115.9375 54.796875 C 117.195312 53.832031 117.152344 52.203125 115.9375 51.195312 C 115.5625 50.90625 115.1875 50.527344 114.726562 50.359375 C 111.085938 48.769531 107.484375 47.011719 103.761719 45.632812 C 100.289062 44.375 96.941406 42.828125 93.800781 40.902344 C 92.421875 40.066406 91.5 38.851562 91.039062 37.261719 C 90.582031 35.589844 89.574219 34.585938 87.945312 33.875 C 81.710938 31.195312 75.140625 29.898438 68.402344 29.226562 C 63.925781 28.769531 59.445312 28.183594 54.96875 27.636719 C 54.761719 27.597656 54.507812 27.636719 54.300781 27.597656 C 46.808594 27.261719 39.359375 27.09375 31.871094 26.59375 C 27.5625 26.300781 23.125 26.550781 19.023438 25.042969 C 14.503906 23.410156 9.566406 22.742188 5.632812 19.5625 C 1.363281 16.089844 1.617188 9.476562 6.261719 6.632812 C 9.984375 4.328125 13.960938 2.78125 18.1875 1.566406 C 24.171875 -0.1875 30.324219 -0.734375 36.515625 -1.195312 C 38.859375 -1.359375 41.203125 -1.695312 43.546875 -2.074219 C 42.039062 -2.074219 40.53125 -2.074219 39.027344 -2.074219 C 39.027344 -2.199219 39.027344 -2.28125 38.984375 -2.40625 C 40.660156 -2.742188 42.289062 -3.203125 44.007812 -3.410156 C 49.65625 -4.082031 55.304688 -4.625 60.953125 -5.335938 C 66.140625 -6.007812 71.289062 -6.882812 76.476562 -7.679688 C 83.132812 -8.683594 89.742188 -9.730469 96.398438 -10.777344 C 103.886719 -11.949219 111.460938 -12.996094 118.660156 -15.546875 C 119.914062 -16.007812 121.210938 -16.761719 122.175781 -17.722656 C 123.765625 -19.355469 123.304688 -21.320312 121.296875 -22.367188 C 114.347656 -25.925781 107.027344 -28.351562 99.367188 -29.734375 C 93.425781 -30.820312 87.527344 -32.160156 81.582031 -33.164062 C 76.3125 -34.042969 70.996094 -34.292969 65.683594 -34 C 60.910156 -33.75 56.140625 -33.207031 51.371094 -33.082031 C 40.953125 -32.789062 30.53125 -32.496094 20.113281 -32.496094 C 16.511719 -32.496094 12.914062 -33.164062 9.398438 -33.75 C 6.511719 -34.125 4.292969 -35.589844 2.664062 -37.726562 C 0.945312 -39.941406 0.445312 -42.496094 1.238281 -45.171875 C 1.992188 -47.683594 3.5 -49.691406 5.71875 -51.199219 C 8.351562 -53 11.28125 -54.085938 14.296875 -55.089844 C 19.566406 -56.765625 25.007812 -57.308594 30.40625 -58.0625 C 33.125 -58.4375 35.929688 -58.355469 38.691406 -58.648438 C 41.496094 -58.941406 44.257812 -59.402344 47.019531 -59.863281 C 47.6875 -59.988281 48.398438 -60.15625 48.945312 -60.53125 C 49.363281 -60.78125 49.78125 -61.410156 49.738281 -61.828125 C 49.695312 -62.289062 49.238281 -62.917969 48.816406 -63.082031 C 44.132812 -64.757812 39.488281 -66.515625 34.421875 -66.851562 C 28.941406 -67.183594 23.460938 -67.894531 18.019531 -67.855469 C 13.417969 -67.8125 8.855469 -66.890625 4.253906 -66.390625 C 3.707031 -66.347656 3.207031 -66.347656 2.578125 -66.558594 C 3.539062 -66.890625 4.503906 -67.269531 5.464844 -67.476562 C 8.855469 -68.230469 12.246094 -69.066406 15.675781 -69.613281 C 17.851562 -69.945312 20.152344 -69.945312 22.371094 -69.945312 C 25.761719 -69.945312 29.152344 -69.695312 32.539062 -69.820312 C 36.726562 -69.988281 40.699219 -69.109375 44.675781 -68.0625 C 46.726562 -67.519531 48.777344 -66.933594 50.785156 -66.222656 C 54.425781 -64.964844 57.105469 -60.949219 56.976562 -57.308594 C 56.894531 -55.007812 55.890625 -53.292969 53.757812 -52.496094 C 51.871094 -51.828125 49.90625 -51.367188 47.9375 -51.074219 C 42.917969 -50.363281 37.855469 -49.820312 32.792969 -49.148438 C 31.953125 -49.023438 31.074219 -48.773438 30.28125 -48.4375 C 29.023438 -47.894531 28.730469 -46.722656 29.484375 -45.632812 C 30.824219 -43.667969 32.664062 -42.371094 35.007812 -41.867188 C 40.699219 -40.65625 46.347656 -39.398438 52.039062 -38.226562 C 59.027344 -36.804688 66.058594 -36.09375 73.214844 -36.136719 C 78.863281 -36.175781 84.429688 -35.296875 89.953125 -34.167969 C 95.226562 -33.082031 100.539062 -32.160156 105.8125 -31.070312 C 107.777344 -30.652344 109.746094 -30.109375 111.585938 -29.398438 C 114.894531 -28.183594 118.199219 -27.261719 121.714844 -26.804688 C 123.636719 -26.550781 125.523438 -26.007812 127.363281 -25.464844 C 130.917969 -24.375 134.519531 -23.332031 137.949219 -21.992188 C 140.710938 -20.902344 143.304688 -19.480469 145.902344 -18.058594 C 147.617188 -17.136719 148.789062 -15.628906 149.539062 -13.832031 C 150.671875 -11.109375 149.792969 -8.558594 147.03125 -7.429688 C 145.273438 -6.71875 143.347656 -6.257812 141.464844 -5.839844 C 135.566406 -4.5 129.582031 -4.164062 123.554688 -4.457031 C 118.324219 -4.707031 113.09375 -5.085938 107.863281 -5.378906 C 107.234375 -5.421875 106.605469 -5.460938 105.980469 -5.503906 C 105.980469 -5.628906 105.980469 -5.753906 105.980469 -5.839844 C 107.527344 -6.007812 109.035156 -6.257812 110.582031 -6.300781 C 113.050781 -6.339844 115.519531 -6.046875 117.988281 -6.132812 C 123.179688 -6.300781 128.410156 -6.464844 133.554688 -6.96875 C 137.027344 -7.304688 140.417969 -8.183594 143.808594 -8.933594 C 144.6875 -9.101562 145.523438 -9.519531 146.320312 -9.941406 C 147.28125 -10.441406 147.53125 -11.320312 147.15625 -12.367188 C 146.570312 -14.039062 145.398438 -15.210938 143.890625 -16.175781 C 139.917969 -18.683594 135.605469 -20.234375 131.128906 -21.574219 C 129.164062 -22.160156 127.277344 -22.953125 125.355469 -23.625 C 125.101562 -23.707031 124.851562 -23.75 124.515625 -23.875 C 127.738281 -19.855469 125.269531 -15.421875 122.132812 -13.621094 C 121.003906 -12.996094 119.703125 -12.535156 118.449219 -12.117188 C 113.554688 -10.652344 108.65625 -9.3125 103.59375 -8.726562 C 97.441406 -8.015625 91.292969 -7.261719 85.140625 -6.507812 C 77.0625 -5.503906 69.03125 -4.457031 60.953125 -3.453125 C 58.777344 -3.203125 56.558594 -2.992188 54.382812 -2.742188 C 67.898438 -2.199219 81.375 -3.410156 94.847656 -4.207031 C 94.890625 -4.082031 94.933594 -3.957031 94.972656 -3.828125 C 94.554688 -3.664062 94.136719 -3.453125 93.71875 -3.371094 C 86.773438 -2.324219 79.785156 -1.527344 72.796875 -1.277344 C 66.269531 -1.066406 59.738281 -0.941406 53.210938 -0.566406 C 44.589844 -0.0625 36.179688 1.609375 28.105469 4.664062 C 26.640625 5.207031 25.175781 5.960938 23.792969 6.757812 C 21.617188 7.96875 21.242188 10.3125 22.75 12.28125 C 24.589844 14.625 26.847656 16.214844 29.820312 17.007812 C 33.085938 17.886719 36.222656 19.183594 39.445312 20.230469 C 43.167969 21.445312 46.851562 22.867188 50.660156 23.621094 C 54.800781 24.414062 59.070312 24.667969 63.296875 24.960938 C 64.886719 25.085938 66.519531 24.582031 68.152344 24.542969 C 70.828125 24.5 73.507812 24.582031 76.183594 24.75 C 79.40625 24.960938 82.628906 25.335938 85.851562 25.671875 C 89.910156 26.089844 93.84375 26.925781 96.984375 29.8125 C 97.441406 30.234375 97.945312 30.734375 98.238281 31.277344 C 99.617188 34.292969 102.214844 35.421875 105.226562 35.964844 C 112.132812 37.179688 119.078125 38.265625 125.980469 39.648438 C 131.632812 40.734375 136.945312 42.953125 142.132812 45.421875 C 144.101562 46.34375 145.566406 47.933594 146.777344 49.691406 C 147.574219 50.820312 147.449219 51.742188 146.652344 52.828125 C 145.273438 54.835938 143.390625 56.09375 141.296875 57.308594 C 136.484375 60.070312 131.464844 62.371094 126.105469 63.667969 C 117.234375 65.84375 108.324219 67.601562 99.199219 68.394531 C 92.421875 69.023438 85.640625 69.609375 78.863281 70.238281 C 77.648438 70.363281 76.476562 70.613281 75.265625 70.863281 C 70.746094 71.910156 66.101562 71.703125 61.539062 71.785156 C 56.140625 71.910156 50.867188 72.664062 45.597656 73.710938 C 42.164062 74.421875 38.691406 74.714844 35.21875 75.175781 C 32.414062 75.550781 29.863281 76.554688 27.351562 77.769531 C 26.136719 78.355469 26.097656 79.570312 27.351562 80.027344 C 29.109375 80.699219 30.949219 81.285156 32.832031 81.492188 C 40.953125 82.414062 49.070312 81.996094 57.230469 81.910156 C 59.195312 81.871094 61.203125 81.828125 63.171875 81.828125 C 71.5 81.785156 79.824219 81.746094 88.152344 81.828125 C 93.007812 81.871094 97.863281 82.371094 102.757812 82.414062 C 109.703125 82.457031 116.648438 82.332031 123.636719 82.121094 C 133.808594 81.828125 144.015625 81.117188 154.1875 81.785156 C 157.574219 81.996094 160.964844 81.996094 164.269531 82.582031 C 167.15625 83.125 170.003906 83 172.808594 82.875 C 176.195312 82.707031 179.417969 83.335938 182.726562 83.753906 C 184.566406 84.003906 186.53125 83.921875 188.375 83.542969 C 192.851562 82.707031 197.328125 82.332031 201.847656 82.289062 C 205.113281 82.246094 208.375 82.078125 211.640625 82.078125 C 215.449219 82.078125 219.257812 82.164062 223.023438 82.332031 C 225.992188 82.457031 228.921875 82.789062 231.894531 83.042969 C 240.261719 83.628906 248.632812 84.128906 257 84.839844 C 263.402344 85.386719 269.765625 86.179688 276.167969 86.851562 C 280.851562 87.308594 285.539062 87.6875 290.226562 88.230469 C 292.570312 88.480469 294.871094 89.152344 297.171875 89.402344 C 302.238281 89.90625 307.089844 91.328125 311.902344 92.792969 C 315.207031 93.796875 317.929688 95.804688 320.605469 97.898438 C 322.070312 99.027344 322.195312 100.617188 321.652344 102.25 C 320.816406 104.800781 319.226562 106.851562 316.632812 107.648438 C 312.574219 108.902344 308.429688 109.949219 304.328125 110.953125 C 298.597656 112.332031 292.863281 113.589844 287.128906 114.84375 C 285.289062 115.261719 283.40625 115.472656 281.523438 116.015625 C 281.941406 116.058594 282.359375 116.058594 282.734375 116.101562 C 286.460938 116.476562 290.101562 115.722656 293.742188 115.011719 C 297.339844 114.34375 301.023438 113.964844 304.664062 113.378906 C 310.730469 112.417969 316.839844 111.582031 322.867188 110.285156 C 328.265625 109.113281 333.703125 107.980469 338.894531 105.890625 C 340.859375 105.054688 343.035156 104.425781 344 102.207031 C 344.542969 100.953125 344.625 100.28125 343.453125 99.527344 C 341.488281 98.273438 339.480469 96.851562 337.304688 96.140625 C 333.035156 94.757812 328.597656 93.671875 324.207031 92.667969 C 319.433594 91.621094 314.582031 90.824219 309.769531 89.863281 C 306.296875 89.152344 302.820312 88.355469 299.390625 87.5625 C 299.097656 87.476562 298.804688 87.351562 298.554688 86.976562 C 298.761719 86.976562 299.015625 86.890625 299.222656 86.933594 C 300.8125 87.144531 302.363281 87.351562 303.953125 87.519531 C 306.882812 87.855469 309.808594 88.1875 312.78125 88.441406 C 315.753906 88.691406 318.808594 88.734375 321.738281 89.152344 C 327.511719 89.988281 333.328125 90.65625 338.933594 92.539062 C 341.65625 93.460938 344.207031 94.71875 346.382812 96.640625 C 347.847656 97.9375 348.351562 99.527344 347.933594 101.371094 C 347.347656 104.046875 345.882812 106.140625 343.371094 107.480469 C 339.980469 109.277344 336.339844 110.410156 332.617188 111.164062 C 327.929688 112.125 323.199219 112.792969 318.429688 113.421875 C 314.539062 113.964844 310.5625 114.257812 306.671875 114.71875 C 302.820312 115.136719 298.972656 115.640625 295.164062 116.101562 C 291.859375 116.519531 288.554688 117.0625 285.246094 117.355469 C 283.28125 117.523438 281.3125 117.398438 279.347656 117.398438 C 274.324219 117.480469 269.304688 117.398438 264.324219 117.730469 C 259.722656 118.066406 255.117188 118.695312 250.640625 119.867188 C 242.691406 121.957031 234.613281 123.714844 226.703125 125.933594 C 219.714844 127.859375 212.855469 130.285156 206.703125 134.304688 C 205.53125 135.054688 204.609375 136.269531 203.648438 137.359375 C 203.019531 138.027344 203.0625 138.863281 203.730469 139.492188 C 204.945312 140.578125 206.074219 141.835938 207.457031 142.589844 C 210.132812 144.011719 213.0625 144.640625 216.117188 144.804688 C 218.585938 144.933594 221.054688 144.890625 223.523438 145.058594 C 225.238281 145.183594 226.914062 145.601562 228.628906 145.894531 C 228.628906 146.019531 228.671875 146.101562 228.671875 146.230469 C 228.128906 146.355469 227.625 146.605469 227.082031 146.605469 C 222.3125 146.730469 217.5 147.234375 212.726562 146.394531 C 208.878906 145.726562 205.152344 144.890625 202.265625 141.835938 C 199.921875 139.40625 199.796875 137.230469 201.972656 134.597656 C 204.777344 131.207031 208.628906 129.53125 212.519531 127.816406 C 213.480469 127.398438 214.484375 127.023438 215.363281 126.394531 C 212.519531 127.023438 209.671875 127.566406 206.828125 128.320312 C 201.890625 129.617188 196.867188 130.746094 192.015625 132.417969 C 185.652344 134.636719 179.460938 137.230469 173.226562 139.785156 C 171.257812 140.578125 169.628906 141.917969 168.246094 143.507812 C 167.03125 144.847656 167.03125 145.683594 168.203125 147.109375 C 170.253906 149.578125 173.015625 150.832031 175.863281 152.046875 C 179.628906 153.636719 183.644531 154.347656 187.664062 155.015625 C 191.929688 155.726562 196.117188 156.730469 200.34375 157.609375 C 201.179688 157.777344 202.015625 157.945312 202.8125 158.113281 C 202.8125 158.195312 202.8125 158.324219 202.8125 158.40625 C 202.058594 158.40625 201.304688 158.488281 200.550781 158.40625 C 194.484375 157.609375 188.414062 156.859375 182.390625 155.894531 C 177.785156 155.140625 173.394531 153.636719 169.460938 151.082031 C 168.164062 150.246094 167.074219 149.074219 166.070312 147.902344 C 164.523438 146.144531 164.5625 144.21875 166.070312 142.421875 C 167.910156 140.160156 170.128906 138.277344 172.890625 137.191406 C 179.710938 134.511719 186.40625 131.457031 193.394531 129.238281 C 200.089844 127.105469 207.078125 125.765625 213.941406 124.21875 C 219.296875 123.003906 224.695312 121.875 230.09375 120.828125 C 232.269531 120.410156 234.488281 120.199219 236.707031 119.742188 C 234.402344 119.742188 232.144531 119.613281 229.84375 119.78125 C 225.953125 120.035156 222.058594 120.410156 218.167969 120.785156 C 217.039062 120.914062 215.910156 121.121094 214.777344 121.289062 C 211.011719 121.875 207.203125 122.460938 203.4375 123.046875 C 201.347656 123.382812 199.253906 123.675781 197.121094 124.007812 C 193.8125 124.511719 190.507812 125.011719 187.242188 125.558594 C 183.855469 126.144531 180.464844 126.769531 177.117188 127.480469 C 170.128906 128.988281 163.140625 130.621094 156.109375 132.042969 C 153.015625 132.671875 149.832031 132.753906 146.738281 133.339844 C 139.957031 134.597656 133.136719 135.851562 126.441406 137.484375 C 120.710938 138.863281 114.976562 140.496094 109.410156 142.464844 C 104.597656 144.179688 99.871094 146.230469 95.894531 149.660156 C 94.765625 150.621094 94.597656 151 95.183594 152.378906 C 96.1875 154.640625 97.902344 156.273438 99.996094 157.402344 C 102.128906 158.574219 104.347656 159.578125 106.605469 160.457031 C 111.417969 162.296875 116.230469 164.179688 121.167969 165.730469 C 124.058594 166.648438 127.195312 166.691406 130.082031 167.527344 C 134.601562 168.824219 139.289062 168.660156 143.851562 169.328125 C 147.28125 169.828125 150.671875 170.542969 154.101562 170.960938 C 157.742188 171.378906 161.382812 171.671875 165.023438 171.839844 C 173.433594 172.257812 181.804688 172.59375 190.214844 172.84375 C 196.074219 173.011719 201.933594 172.925781 207.789062 173.011719 C 211.847656 173.09375 215.910156 173.261719 220.007812 173.34375 C 223.148438 173.429688 226.246094 173.386719 229.382812 173.429688 C 233.820312 173.46875 238.296875 173.554688 242.730469 173.636719 C 248.882812 173.761719 255.035156 173.929688 261.1875 174.140625 C 263.90625 174.222656 266.710938 174.183594 269.386719 174.601562 C 277.503906 175.980469 285.664062 175.269531 293.785156 175.980469 C 296.921875 176.273438 300.058594 176.609375 303.199219 176.902344 C 304.121094 176.984375 305 177.070312 305.917969 177.109375 C 313.953125 177.738281 321.945312 178.535156 329.9375 179.832031 C 335.042969 180.667969 340.066406 181.796875 345.042969 183.21875 C 347.640625 183.972656 349.980469 185.1875 351.90625 187.152344 C 353.078125 188.367188 353.371094 189.664062 352.828125 191.214844 C 351.992188 193.554688 350.484375 195.273438 348.097656 195.984375 C 345.335938 196.777344 342.535156 197.488281 339.6875 197.992188 C 335.671875 198.660156 331.652344 199.121094 327.59375 199.539062 C 325.085938 199.792969 322.488281 199.75 319.980469 199.917969 C 316.210938 200.125 312.488281 200.417969 308.722656 200.628906 C 305.082031 200.835938 301.441406 201.128906 297.800781 201.257812 C 295.5 201.339844 293.15625 201.128906 290.855469 201.046875 C 287.464844 200.921875 284.074219 200.835938 280.726562 200.585938 C 276.917969 200.335938 273.113281 199.917969 269.304688 199.375 C 269.722656 199.332031 270.140625 199.207031 270.558594 199.207031 C 276.039062 199.246094 281.523438 199.457031 286.960938 199.289062 C 292.066406 199.121094 297.171875 198.660156 302.277344 198.074219 C 306.296875 197.617188 310.3125 196.988281 314.289062 196.191406 C 317.511719 195.523438 320.648438 194.476562 323.828125 193.597656 C 325.292969 193.179688 326.757812 192.71875 328.222656 192.34375 C 329.855469 191.925781 331.152344 191.171875 331.820312 189.496094 C 332.199219 188.535156 332.074219 187.738281 331.320312 187.027344 C 329.226562 185.019531 326.632812 183.679688 323.914062 182.84375 C 321.484375 182.089844 318.890625 181.796875 316.339844 181.421875 C 309.390625 180.417969 302.402344 179.453125 295.457031 178.574219 C 290.144531 177.90625 284.785156 177.445312 279.472656 176.777344 C 276.082031 176.359375 272.734375 175.730469 269.386719 175.269531 C 268.632812 175.144531 267.882812 175.1875 267.128906 175.1875 C 259.847656 175.1875 252.605469 175.226562 245.324219 175.226562 C 240.890625 175.226562 236.414062 175.101562 231.976562 174.976562 C 224.988281 174.808594 218 174.601562 211.011719 174.515625 C 204.441406 174.390625 197.871094 174.476562 191.261719 174.308594 C 182.765625 174.140625 174.230469 173.929688 165.734375 173.554688 C 160.421875 173.304688 155.066406 173.050781 149.832031 172.171875 C 144.644531 171.335938 139.371094 171.210938 134.226562 170.375 C 125.730469 169.035156 117.152344 167.945312 109.160156 164.304688 C 105.769531 162.757812 102.085938 161.710938 98.699219 160.078125 C 95.726562 158.65625 93.257812 156.480469 91.917969 153.425781 C 90.328125 149.785156 91.167969 148.613281 93.507812 146.648438 C 96.816406 143.925781 100.664062 142.253906 104.515625 140.496094 C 110.164062 137.902344 116.273438 136.898438 122.171875 135.265625 C 128.785156 133.425781 135.605469 132.671875 142.34375 131.625 C 146.191406 131.039062 150.125 130.789062 153.976562 130.242188 C 157.40625 129.785156 160.796875 129.199219 164.1875 128.570312 C 168.246094 127.859375 172.304688 127.105469 176.363281 126.351562 C 176.824219 126.269531 177.242188 126.144531 177.660156 126.058594 C 177.660156 126.144531 177.660156 126.058594 177.660156 125.933594 Z M 50.703125 -62.078125 C 50.953125 -60.65625 50.324219 -59.820312 49.363281 -59.191406 C 48.734375 -58.816406 48.105469 -58.4375 47.394531 -58.3125 C 43.210938 -57.519531 39.066406 -56.554688 34.882812 -56.054688 C 28.273438 -55.257812 21.742188 -54.210938 15.425781 -51.996094 C 12.539062 -50.949219 9.734375 -49.777344 7.347656 -47.851562 C 3.582031 -44.796875 3.625 -40.109375 7.765625 -37.765625 C 8.980469 -37.097656 10.320312 -36.554688 11.699219 -36.300781 C 18.855469 -34.835938 26.179688 -34.796875 33.503906 -34.671875 C 39.234375 -34.585938 44.96875 -34.796875 50.703125 -34.835938 C 53.503906 -34.878906 56.351562 -34.835938 59.152344 -34.835938 C 55.933594 -35.507812 52.75 -36.09375 49.53125 -36.679688 C 44.464844 -37.597656 39.445312 -38.476562 34.382812 -39.398438 C 31.199219 -39.984375 28.816406 -41.742188 27.058594 -44.421875 C 25.550781 -46.679688 26.304688 -49.734375 28.730469 -50.988281 C 29.652344 -51.449219 30.699219 -51.828125 31.746094 -51.996094 C 37.601562 -53 43.503906 -53.917969 49.402344 -54.964844 C 50.367188 -55.132812 51.285156 -55.550781 52.164062 -55.929688 C 53.003906 -56.261719 53.296875 -57.015625 53.210938 -57.894531 C 53.042969 -59.570312 52.207031 -60.867188 50.703125 -62.078125 Z M 51.078125 25.878906 C 51.078125 25.753906 51.078125 25.628906 51.121094 25.503906 C 49.402344 25 47.6875 24.542969 46.015625 24.039062 C 40.949219 22.574219 35.929688 20.941406 30.78125 19.730469 C 26.933594 18.808594 23.628906 17.300781 20.824219 14.414062 C 17.601562 11.109375 18.816406 6.046875 22.457031 4.164062 C 23.042969 3.871094 23.628906 3.535156 24.171875 3.199219 C 24.128906 3.117188 24.085938 2.992188 24.046875 2.90625 C 21.535156 3.617188 19.023438 4.328125 16.511719 5.082031 C 13.292969 6.046875 10.320312 7.59375 7.515625 9.433594 C 4.796875 11.234375 4.710938 15.460938 7.308594 17.46875 C 9.230469 18.976562 11.28125 20.230469 13.710938 20.816406 C 14.460938 20.984375 15.175781 21.234375 15.84375 21.570312 C 18.605469 22.992188 21.578125 23.664062 24.589844 23.957031 C 28.984375 24.414062 33.378906 24.707031 37.769531 25 C 42.25 25.378906 46.640625 25.585938 51.078125 25.878906 Z M 317.300781 197.53125 C 317.300781 197.65625 317.300781 197.78125 317.34375 197.910156 C 320.773438 197.574219 324.246094 197.363281 327.636719 196.902344 C 331.570312 196.359375 335.503906 195.691406 339.4375 194.894531 C 341.90625 194.394531 344.375 193.683594 346.761719 192.84375 C 347.597656 192.550781 348.308594 191.714844 348.976562 191.003906 C 349.398438 190.585938 349.3125 190.042969 348.769531 189.664062 C 347.933594 189.078125 347.179688 188.285156 346.214844 187.949219 C 343.414062 186.945312 340.523438 186.023438 337.679688 185.1875 C 336.089844 184.726562 334.457031 184.390625 332.867188 184.015625 C 332.785156 184.140625 332.699219 184.265625 332.617188 184.390625 C 332.949219 184.644531 333.328125 184.8125 333.621094 185.105469 C 335.253906 186.695312 335.546875 188.703125 334.625 190.753906 C 333.496094 193.265625 331.402344 194.394531 328.890625 194.9375 C 325 195.816406 321.152344 196.695312 317.300781 197.53125 Z M 236.453125 116.851562 C 236.453125 117.0625 236.453125 117.273438 236.453125 117.4375 C 241.519531 116.851562 246.664062 117.941406 250.640625 116.851562 C 246.625 116.851562 241.519531 116.851562 236.453125 116.851562 Z M 236.453125 116.851562 "/></g><g clip-rule="nonzero" clip-path="url(#f3479ece1a)"><path style=" stroke:none;fill-rule:nonzero;fill:#8750f7;fill-opacity:1;" d="M 314.875 175.269531 C 315.207031 175.226562 315.542969 175.144531 315.917969 175.1875 C 321.359375 175.226562 326.757812 175.605469 332.113281 176.609375 C 335.253906 177.195312 338.476562 177.320312 341.570312 177.949219 C 345.671875 178.785156 349.691406 179.957031 353.707031 181.003906 C 355.421875 181.464844 357.136719 182.007812 358.855469 182.46875 C 363.957031 183.804688 368.605469 186.109375 372.621094 189.539062 C 376.472656 192.84375 375.757812 197.449219 371.199219 199.707031 C 369.105469 200.753906 366.804688 200.878906 364.542969 201.089844 C 362.242188 201.296875 359.941406 201.675781 357.683594 201.84375 C 353.246094 202.21875 348.8125 202.59375 344.375 202.847656 C 338.054688 203.222656 331.695312 203.515625 325.335938 203.851562 C 323.242188 203.976562 321.152344 204.058594 319.058594 204.144531 C 318.722656 204.144531 318.347656 204.101562 318.011719 204.058594 C 318.011719 203.976562 318.011719 203.851562 318.011719 203.765625 C 319.265625 203.515625 320.523438 203.265625 321.777344 203.015625 C 326.882812 202.007812 332.074219 201.675781 337.261719 201.339844 C 343.328125 200.921875 349.398438 200.417969 355.378906 199.375 C 359.355469 198.660156 363.289062 198.035156 367.265625 197.488281 C 368.644531 197.324219 369.902344 196.777344 370.820312 195.648438 C 371.824219 194.433594 371.867188 193.683594 370.695312 192.59375 C 369.609375 191.589844 368.4375 190.667969 367.222656 189.832031 C 363.371094 187.152344 358.980469 185.691406 354.542969 184.308594 C 350.734375 183.136719 346.96875 181.839844 343.160156 180.710938 C 341.027344 180.082031 338.808594 179.707031 336.632812 179.203125 C 333.203125 178.449219 329.769531 177.65625 326.296875 177.027344 C 322.53125 176.359375 318.722656 175.941406 314.957031 175.394531 C 314.914062 175.355469 314.914062 175.3125 314.875 175.269531 Z M 314.875 175.269531 "/></g><path style=" stroke:none;fill-rule:nonzero;fill:#8750f7;fill-opacity:1;" d="M 58.988281 31.988281 C 62.878906 31.738281 66.769531 31.027344 70.660156 32.03125 C 71.121094 32.15625 71.625 32.28125 72.085938 32.410156 C 74.429688 33.078125 76.730469 33.832031 79.074219 34.457031 C 82.378906 35.335938 83.925781 37.054688 84.011719 40.484375 C 84.050781 41.992188 84.511719 43.121094 85.769531 43.789062 C 87.527344 44.710938 89.324219 45.589844 91.167969 46.386719 C 92.296875 46.886719 93.59375 47.011719 94.722656 47.554688 C 96.019531 48.140625 97.316406 48.855469 98.363281 49.816406 C 100.457031 51.65625 100.078125 54.042969 97.570312 55.171875 C 95.894531 55.925781 94.09375 56.554688 92.296875 56.886719 C 88.402344 57.601562 84.511719 58.101562 80.578125 58.605469 C 75.597656 59.273438 70.660156 58.9375 65.683594 58.644531 C 60.785156 58.3125 55.890625 58.3125 50.992188 58.101562 C 50.535156 58.101562 50.03125 57.976562 49.570312 57.890625 C 49.570312 57.765625 49.613281 57.683594 49.613281 57.558594 C 50.742188 57.433594 51.914062 57.390625 53.042969 57.222656 C 59.238281 56.300781 65.472656 56.804688 71.707031 56.804688 C 75.890625 56.804688 80.117188 56.21875 84.304688 55.714844 C 87.398438 55.339844 90.453125 54.796875 93.507812 54.210938 C 94.515625 54.042969 95.476562 53.582031 96.398438 53.164062 C 97.441406 52.703125 97.570312 52.242188 96.691406 51.488281 C 95.851562 50.777344 94.933594 50.152344 93.96875 49.691406 C 92.378906 49.019531 90.707031 48.476562 89.03125 47.976562 C 86.980469 47.347656 85.265625 46.257812 83.632812 44.878906 C 82.628906 44.042969 82.042969 43.039062 81.960938 41.78125 C 81.75 38.351562 81.542969 37.511719 77.316406 36.257812 C 74.679688 35.464844 72.125 34.207031 69.449219 33.582031 C 66.769531 32.953125 63.964844 32.867188 61.246094 32.574219 C 60.492188 32.492188 59.78125 32.449219 59.027344 32.367188 C 58.945312 32.199219 58.988281 32.074219 58.988281 31.988281 Z M 58.988281 31.988281 "/><path style=" stroke:none;fill-rule:nonzero;fill:#8750f7;fill-opacity:1;" d="M 48.566406 67.933594 C 48.316406 67.976562 48.105469 68.0625 47.855469 68.101562 C 45.386719 68.4375 42.917969 68.730469 40.449219 69.023438 C 38.1875 69.273438 35.886719 69.398438 33.671875 69.820312 C 28.523438 70.824219 23.417969 71.953125 18.3125 73.082031 C 14.210938 74.003906 10.320312 75.507812 6.804688 77.851562 C 5.632812 78.648438 5.632812 79.863281 6.847656 80.574219 C 7.308594 80.867188 7.808594 81.035156 8.3125 81.242188 C 11.785156 82.496094 15.425781 83.082031 19.109375 83.375 C 21.996094 83.628906 24.882812 84.128906 27.769531 84.546875 C 28.105469 84.589844 28.4375 84.714844 28.730469 85.007812 C 28.355469 85.050781 27.980469 85.175781 27.601562 85.175781 C 24.925781 85.09375 22.289062 85.09375 19.609375 84.925781 C 16.386719 84.714844 13.164062 84.421875 9.984375 84.046875 C 8.5625 83.878906 7.140625 83.417969 5.84375 82.875 C 5.089844 82.582031 4.335938 81.953125 3.875 81.285156 C 2.035156 78.648438 2.578125 76.679688 5.257812 74.882812 C 9.566406 71.953125 14.460938 70.824219 19.484375 70.113281 C 23.335938 69.609375 27.140625 68.941406 30.992188 68.4375 C 32.832031 68.1875 34.714844 68.144531 36.558594 68.0625 C 39.488281 67.894531 42.375 67.726562 45.304688 67.558594 C 46.390625 67.515625 47.480469 67.558594 48.566406 67.558594 C 48.523438 67.726562 48.566406 67.808594 48.566406 67.933594 Z M 48.566406 67.933594 "/><path style=" stroke:none;fill-rule:nonzero;fill:#8750f7;fill-opacity:1;" d="M 236.453125 116.851562 C 241.558594 116.851562 246.625 116.851562 250.640625 116.851562 C 246.707031 117.941406 241.558594 116.894531 236.453125 117.4375 C 236.453125 117.273438 236.453125 117.0625 236.453125 116.851562 Z M 236.453125 116.851562 "/></g><mask id="b0d45bb78f"><g filter="url(#e8e7303b6e)"><rect x="0" width="1024.5" y="0" height="576" style="fill:#000000;fill-opacity:0.15;stroke:none;"/></g></mask></g></g><g clip-rule="nonzero" clip-path="url(#63d1f3151d)"><g mask="url(#49064a526a)" transform="matrix(1,0,0,1,83,482)"><g clip-path="url(#37a754729f)"><g clip-rule="nonzero" clip-path="url(#750846bc36)"><path style=" stroke:none;fill-rule:nonzero;fill:#8750f7;fill-opacity:1;" d="M 177.164062 196.066406 C 173.019531 196.484375 168.835938 196.902344 164.691406 197.363281 C 159.210938 197.949219 153.730469 198.578125 148.246094 199.207031 C 143.6875 199.707031 139.125 200.210938 134.5625 200.878906 C 131.132812 201.382812 127.785156 202.34375 124.355469 202.722656 C 119.375 203.222656 114.644531 204.898438 109.832031 205.984375 C 106.527344 206.738281 103.222656 207.367188 99.957031 208.246094 C 95.816406 209.375 91.753906 210.796875 87.65625 211.96875 C 81.085938 213.808594 74.890625 216.40625 69.367188 220.503906 C 67.277344 222.054688 65.433594 223.8125 64.847656 226.449219 C 64.640625 227.285156 64.679688 228.414062 65.058594 229.167969 C 67.234375 233.4375 70.832031 236.113281 75.269531 237.746094 C 79.078125 239.167969 83.136719 239.335938 87.152344 239.839844 C 95.101562 240.800781 103.054688 241.679688 111.089844 242.015625 C 118.371094 242.308594 125.652344 243.144531 132.933594 243.6875 C 140.171875 244.230469 147.410156 244.691406 154.648438 245.152344 C 155.070312 245.195312 155.488281 245.277344 155.90625 245.320312 C 155.90625 245.445312 155.90625 245.570312 155.90625 245.695312 C 154.902344 245.820312 153.898438 245.988281 152.851562 246.03125 C 143.769531 246.660156 134.773438 245.863281 125.734375 245.195312 C 121.800781 244.902344 117.824219 244.859375 113.890625 244.648438 C 109.371094 244.441406 104.855469 244.316406 100.335938 243.980469 C 95.144531 243.605469 89.957031 242.933594 84.765625 242.515625 C 81.167969 242.222656 77.570312 241.804688 74.140625 240.589844 C 68.90625 238.707031 64.722656 235.527344 62.128906 230.507812 C 61.292969 228.917969 61.25 227.242188 61.792969 225.527344 C 62.714844 222.429688 64.722656 220.128906 67.191406 218.246094 C 73.425781 213.558594 80.582031 210.839844 88.113281 208.996094 C 92.632812 207.867188 97.113281 206.488281 101.632812 205.316406 C 105.144531 204.394531 108.746094 203.726562 112.300781 202.886719 C 113.515625 202.59375 114.6875 202.136719 115.941406 201.882812 C 121.800781 200.671875 127.703125 199.457031 133.601562 198.367188 C 135.902344 197.949219 138.289062 197.949219 140.632812 197.65625 C 146.449219 196.902344 152.222656 195.984375 158.039062 195.273438 C 165.238281 194.433594 172.476562 193.765625 179.714844 193.054688 C 184.191406 192.59375 188.710938 192.21875 193.191406 191.632812 C 196.539062 191.214844 199.84375 190.460938 203.191406 189.914062 C 207.625 189.203125 212.019531 188.453125 216.457031 187.867188 C 218.296875 187.613281 220.179688 187.699219 222.023438 187.53125 C 224.238281 187.320312 226.414062 187.070312 228.589844 186.820312 C 231.898438 186.441406 235.203125 185.898438 238.550781 185.773438 C 249.847656 185.3125 261.148438 185.0625 272.402344 184.558594 C 278.972656 184.265625 285.460938 183.054688 291.820312 181.421875 C 296.800781 180.125 301.78125 179.035156 306.757812 177.738281 C 309.605469 176.984375 312.449219 176.066406 315.210938 174.976562 C 316.214844 174.601562 317.09375 173.597656 317.765625 172.675781 C 318.558594 171.585938 318.226562 171.042969 317.222656 170.164062 C 313.328125 166.902344 308.644531 165.476562 303.871094 164.347656 C 297.136719 162.757812 290.398438 161.335938 283.453125 160.832031 C 280.144531 160.582031 276.921875 159.914062 273.617188 159.535156 C 268.46875 158.910156 263.28125 158.324219 258.09375 157.695312 C 251.105469 156.859375 244.117188 156.019531 237.171875 155.269531 C 235.328125 155.058594 233.445312 155.183594 231.605469 155.058594 C 225.789062 154.640625 220.011719 154.222656 214.195312 153.886719 C 207.878906 153.550781 201.601562 154.011719 195.28125 154.054688 C 192.898438 154.054688 190.46875 154.722656 188.085938 154.890625 C 185.699219 155.058594 183.316406 155.015625 180.972656 154.890625 C 177.832031 154.765625 174.695312 154.515625 171.554688 154.222656 C 168.878906 153.96875 166.242188 153.511719 163.605469 153.175781 C 163.394531 153.132812 163.144531 153.132812 162.933594 153.132812 C 158.625 153.132812 154.355469 153.050781 150.046875 153.175781 C 142.765625 153.382812 135.441406 153.804688 128.160156 154.011719 C 120.796875 154.222656 113.433594 154.429688 106.023438 154.472656 C 101.464844 154.472656 96.902344 154.179688 92.339844 154.011719 C 83.554688 153.675781 74.765625 153.761719 66.019531 154.136719 C 57.316406 154.515625 48.613281 154.765625 39.910156 154.847656 C 35.558594 154.890625 31.164062 154.722656 26.9375 153.34375 C 25.136719 152.757812 23.589844 151.792969 23.003906 149.871094 C 22.292969 147.609375 23.210938 145.558594 25.429688 144.472656 C 28.609375 142.882812 32.042969 142.003906 35.597656 141.667969 C 41.414062 141.125 47.230469 140.414062 53.046875 139.953125 C 55.851562 139.742188 58.65625 140.078125 61.5 140.078125 C 68.027344 140.078125 74.558594 139.660156 81 138.613281 C 86.484375 137.734375 92.007812 137.230469 97.488281 136.351562 C 104.476562 135.222656 111.464844 133.800781 118.453125 132.628906 C 124.019531 131.707031 129.417969 130.160156 134.605469 127.902344 C 137.117188 126.8125 139.542969 125.558594 141.929688 124.175781 C 142.890625 123.632812 143.601562 122.542969 144.3125 121.664062 C 144.441406 121.5 144.273438 120.953125 144.0625 120.703125 C 142.597656 118.863281 140.671875 117.648438 138.496094 116.6875 C 131.175781 113.503906 123.476562 111.621094 115.648438 110.117188 C 111.046875 109.238281 106.484375 108.402344 101.925781 107.355469 C 99.457031 106.769531 97.699219 105.179688 96.316406 103.003906 C 94.894531 100.785156 92.632812 99.527344 90.164062 99.027344 C 86.066406 98.191406 81.921875 97.773438 77.78125 97.144531 C 76.480469 96.933594 75.144531 96.726562 73.886719 96.390625 C 70.917969 95.636719 67.988281 95.722656 64.972656 96.140625 C 61.460938 96.640625 57.859375 96.726562 54.304688 97.1875 C 56.898438 97.226562 59.492188 97.1875 62.085938 97.351562 C 67.277344 97.6875 72.546875 97.773438 77.652344 98.609375 C 81.710938 99.277344 85.605469 100.867188 89.496094 102.207031 C 91.253906 102.835938 92.257812 104.382812 92.632812 106.183594 C 92.96875 107.941406 94.015625 108.984375 95.480469 109.78125 C 98.617188 111.496094 101.800781 113.085938 105.3125 113.964844 C 106.570312 114.257812 107.699219 114.886719 108.914062 115.429688 C 110.710938 116.226562 112.511719 117.019531 114.3125 117.816406 C 116.527344 118.820312 118.453125 120.035156 118.746094 122.796875 C 118.871094 124.007812 118.746094 125.054688 117.910156 125.851562 C 116.945312 126.730469 115.902344 127.648438 114.6875 128.152344 C 106.527344 131.582031 97.992188 133.71875 89.121094 134.34375 C 83.261719 134.761719 77.445312 135.140625 71.585938 135.390625 C 69.914062 135.476562 68.195312 135.140625 66.480469 134.972656 C 66.355469 134.972656 66.230469 134.890625 65.8125 134.679688 C 67.109375 134.554688 68.113281 134.429688 69.074219 134.304688 C 77.945312 133.296875 86.816406 132.378906 95.6875 131.207031 C 101.964844 130.371094 107.949219 128.277344 113.808594 125.976562 C 114.394531 125.722656 114.9375 125.347656 115.441406 124.929688 C 116.695312 123.96875 116.652344 122.335938 115.441406 121.332031 C 115.0625 121.039062 114.6875 120.660156 114.226562 120.492188 C 110.585938 118.902344 106.988281 117.144531 103.261719 115.765625 C 99.789062 114.511719 96.441406 112.960938 93.304688 111.035156 C 91.921875 110.199219 91.003906 108.984375 90.542969 107.394531 C 90.082031 105.722656 89.078125 104.71875 87.445312 104.007812 C 81.210938 101.328125 74.640625 100.03125 67.902344 99.363281 C 63.425781 98.902344 58.949219 98.316406 54.472656 97.773438 C 54.261719 97.730469 54.011719 97.773438 53.800781 97.730469 C 46.3125 97.394531 38.863281 97.226562 31.371094 96.726562 C 27.0625 96.433594 22.625 96.683594 18.527344 95.175781 C 14.007812 93.546875 9.070312 92.875 5.136719 89.695312 C 0.867188 86.222656 1.117188 79.609375 5.761719 76.765625 C 9.488281 74.464844 13.460938 72.914062 17.6875 71.703125 C 23.671875 69.945312 29.824219 69.398438 36.015625 68.941406 C 38.359375 68.773438 40.703125 68.4375 43.046875 68.0625 C 41.539062 68.0625 40.035156 68.0625 38.527344 68.0625 C 38.527344 67.933594 38.527344 67.851562 38.484375 67.726562 C 40.160156 67.390625 41.792969 66.929688 43.507812 66.722656 C 49.15625 66.050781 54.804688 65.507812 60.457031 64.796875 C 65.644531 64.128906 70.792969 63.25 75.980469 62.453125 C 82.632812 61.449219 89.246094 60.402344 95.898438 59.355469 C 103.390625 58.183594 110.964844 57.140625 118.160156 54.585938 C 119.414062 54.125 120.714844 53.375 121.675781 52.410156 C 123.265625 50.777344 122.804688 48.8125 120.796875 47.765625 C 113.851562 44.207031 106.527344 41.78125 98.871094 40.402344 C 92.925781 39.3125 87.027344 37.972656 81.085938 36.96875 C 75.8125 36.089844 70.5 35.839844 65.183594 36.132812 C 60.414062 36.382812 55.644531 36.929688 50.871094 37.054688 C 40.453125 37.347656 30.035156 37.640625 19.613281 37.640625 C 16.015625 37.640625 12.417969 36.96875 8.902344 36.382812 C 6.015625 36.007812 3.796875 34.542969 2.164062 32.410156 C 0.449219 30.191406 -0.0546875 27.636719 0.742188 24.960938 C 1.496094 22.449219 3 20.441406 5.21875 18.933594 C 7.855469 17.132812 10.785156 16.046875 13.796875 15.042969 C 19.070312 13.367188 24.507812 12.824219 29.90625 12.070312 C 32.628906 11.695312 35.429688 11.777344 38.191406 11.484375 C 40.996094 11.191406 43.757812 10.730469 46.519531 10.273438 C 47.191406 10.144531 47.902344 9.980469 48.445312 9.601562 C 48.863281 9.351562 49.28125 8.722656 49.242188 8.304688 C 49.199219 7.84375 48.738281 7.21875 48.320312 7.050781 C 43.632812 5.375 38.988281 3.617188 33.925781 3.285156 C 28.441406 2.949219 22.960938 2.238281 17.519531 2.28125 C 12.917969 2.320312 8.355469 3.242188 3.753906 3.742188 C 3.210938 3.785156 2.707031 3.785156 2.082031 3.578125 C 3.042969 3.242188 4.003906 2.867188 4.96875 2.65625 C 8.355469 1.902344 11.746094 1.066406 15.179688 0.523438 C 17.355469 0.1875 19.65625 0.1875 21.875 0.1875 C 25.261719 0.1875 28.652344 0.4375 32.042969 0.3125 C 36.226562 0.144531 40.203125 1.023438 44.175781 2.070312 C 46.226562 2.613281 48.277344 3.199219 50.285156 3.910156 C 53.925781 5.167969 56.605469 9.183594 56.480469 12.824219 C 56.394531 15.125 55.390625 16.839844 53.257812 17.636719 C 51.375 18.304688 49.40625 18.765625 47.441406 19.058594 C 42.417969 19.769531 37.355469 20.316406 32.292969 20.984375 C 31.457031 21.109375 30.578125 21.359375 29.78125 21.695312 C 28.527344 22.238281 28.234375 23.410156 28.988281 24.5 C 30.324219 26.464844 32.167969 27.761719 34.511719 28.265625 C 40.203125 29.480469 45.851562 30.734375 51.542969 31.90625 C 58.53125 33.328125 65.558594 34.039062 72.714844 34 C 78.363281 33.957031 83.929688 34.835938 89.453125 35.964844 C 94.726562 37.054688 100.042969 37.972656 105.3125 39.0625 C 107.28125 39.480469 109.246094 40.023438 111.089844 40.734375 C 114.394531 41.949219 117.699219 42.871094 121.214844 43.332031 C 123.140625 43.582031 125.023438 44.125 126.863281 44.667969 C 130.421875 45.757812 134.019531 46.804688 137.453125 48.140625 C 140.214844 49.230469 142.808594 50.652344 145.402344 52.074219 C 147.117188 52.996094 148.289062 54.503906 149.042969 56.300781 C 150.171875 59.023438 149.292969 61.574219 146.53125 62.703125 C 144.773438 63.417969 142.847656 63.875 140.964844 64.292969 C 135.066406 65.632812 129.082031 65.96875 123.054688 65.675781 C 117.824219 65.425781 112.59375 65.046875 107.363281 64.753906 C 106.738281 64.714844 106.109375 64.671875 105.480469 64.628906 C 105.480469 64.503906 105.480469 64.378906 105.480469 64.292969 C 107.03125 64.128906 108.535156 63.875 110.085938 63.835938 C 112.554688 63.792969 115.023438 64.085938 117.492188 64 C 122.679688 63.835938 127.910156 63.667969 133.058594 63.164062 C 136.53125 62.832031 139.921875 61.953125 143.308594 61.199219 C 144.1875 61.03125 145.027344 60.613281 145.820312 60.195312 C 146.78125 59.691406 147.035156 58.8125 146.65625 57.765625 C 146.070312 56.09375 144.898438 54.921875 143.394531 53.957031 C 139.417969 51.449219 135.109375 49.898438 130.628906 48.5625 C 128.664062 47.976562 126.78125 47.179688 124.855469 46.511719 C 124.605469 46.425781 124.355469 46.386719 124.019531 46.257812 C 127.242188 50.277344 124.773438 54.710938 121.632812 56.511719 C 120.503906 57.140625 119.207031 57.597656 117.953125 58.019531 C 113.054688 59.484375 108.160156 60.820312 103.097656 61.40625 C 96.945312 62.117188 90.792969 62.871094 84.640625 63.625 C 76.566406 64.628906 68.53125 65.675781 60.457031 66.679688 C 58.277344 66.929688 56.0625 67.140625 53.886719 67.390625 C 67.402344 67.933594 80.875 66.722656 94.351562 65.925781 C 94.390625 66.050781 94.433594 66.179688 94.476562 66.304688 C 94.058594 66.472656 93.640625 66.679688 93.21875 66.765625 C 86.273438 67.808594 79.285156 68.605469 72.296875 68.855469 C 65.769531 69.066406 59.242188 69.191406 52.714844 69.566406 C 44.09375 70.070312 35.683594 71.742188 27.605469 74.796875 C 26.140625 75.34375 24.675781 76.09375 23.296875 76.890625 C 21.121094 78.105469 20.742188 80.449219 22.25 82.414062 C 24.089844 84.757812 26.351562 86.347656 29.320312 87.144531 C 32.585938 88.019531 35.722656 89.320312 38.945312 90.363281 C 42.671875 91.578125 46.351562 93 50.160156 93.753906 C 54.304688 94.550781 58.570312 94.800781 62.796875 95.09375 C 64.386719 95.21875 66.019531 94.714844 67.652344 94.675781 C 70.332031 94.632812 73.007812 94.714844 75.6875 94.882812 C 78.910156 95.09375 82.132812 95.46875 85.351562 95.804688 C 89.414062 96.222656 93.347656 97.058594 96.484375 99.949219 C 96.945312 100.367188 97.445312 100.867188 97.738281 101.410156 C 99.121094 104.425781 101.714844 105.554688 104.726562 106.097656 C 111.632812 107.3125 118.578125 108.398438 125.484375 109.78125 C 131.132812 110.871094 136.445312 113.085938 141.636719 115.554688 C 143.601562 116.476562 145.066406 118.066406 146.28125 119.824219 C 147.074219 120.953125 146.949219 121.875 146.15625 122.960938 C 144.773438 124.972656 142.890625 126.226562 140.800781 127.441406 C 135.988281 130.203125 130.964844 132.503906 125.609375 133.800781 C 116.738281 135.976562 107.824219 137.734375 98.703125 138.53125 C 91.921875 139.15625 85.144531 139.742188 78.363281 140.371094 C 77.152344 140.496094 75.980469 140.746094 74.765625 141 C 70.246094 142.042969 65.601562 141.835938 61.042969 141.917969 C 55.644531 142.042969 50.371094 142.796875 45.097656 143.84375 C 41.667969 144.554688 38.191406 144.847656 34.71875 145.308594 C 31.917969 145.683594 29.363281 146.6875 26.851562 147.902344 C 25.640625 148.488281 25.597656 149.703125 26.851562 150.164062 C 28.609375 150.832031 30.453125 151.417969 32.335938 151.628906 C 40.453125 152.546875 48.570312 152.128906 56.730469 152.046875 C 58.699219 152.003906 60.707031 151.960938 62.671875 151.960938 C 71 151.921875 79.328125 151.878906 87.65625 151.960938 C 92.507812 152.003906 97.363281 152.503906 102.257812 152.546875 C 109.207031 152.589844 116.152344 152.464844 123.140625 152.253906 C 133.308594 151.960938 143.519531 151.25 153.6875 151.921875 C 157.078125 152.128906 160.464844 152.128906 163.773438 152.714844 C 166.660156 153.257812 169.503906 153.132812 172.308594 153.007812 C 175.699219 152.839844 178.921875 153.46875 182.226562 153.886719 C 184.066406 154.136719 186.035156 154.054688 187.875 153.675781 C 192.351562 152.839844 196.832031 152.464844 201.351562 152.421875 C 204.613281 152.378906 207.878906 152.210938 211.140625 152.210938 C 214.949219 152.210938 218.757812 152.296875 222.523438 152.464844 C 225.496094 152.589844 228.425781 152.925781 231.394531 153.175781 C 239.765625 153.761719 248.132812 154.261719 256.503906 154.976562 C 262.90625 155.519531 269.265625 156.3125 275.667969 156.984375 C 280.355469 157.445312 285.042969 157.820312 289.726562 158.363281 C 292.070312 158.617188 294.375 159.285156 296.675781 159.535156 C 301.738281 160.039062 306.59375 161.460938 311.40625 162.925781 C 314.710938 163.929688 317.429688 165.9375 320.109375 168.03125 C 321.574219 169.160156 321.699219 170.75 321.15625 172.382812 C 320.316406 174.933594 318.726562 176.984375 316.132812 177.78125 C 312.074219 179.035156 307.929688 180.082031 303.832031 181.085938 C 298.097656 182.46875 292.363281 183.722656 286.632812 184.976562 C 284.789062 185.398438 282.90625 185.605469 281.023438 186.148438 C 281.441406 186.191406 281.859375 186.191406 282.238281 186.234375 C 285.960938 186.609375 289.601562 185.855469 293.242188 185.144531 C 296.84375 184.476562 300.523438 184.097656 304.164062 183.511719 C 310.234375 182.550781 316.34375 181.714844 322.367188 180.417969 C 327.765625 179.246094 333.207031 178.117188 338.394531 176.023438 C 340.363281 175.1875 342.539062 174.558594 343.5 172.339844 C 344.042969 171.085938 344.128906 170.414062 342.957031 169.664062 C 340.988281 168.40625 338.980469 166.984375 336.804688 166.273438 C 332.535156 164.890625 328.101562 163.804688 323.707031 162.800781 C 318.9375 161.753906 314.082031 160.957031 309.269531 159.996094 C 305.796875 159.285156 302.324219 158.488281 298.890625 157.695312 C 298.597656 157.609375 298.308594 157.484375 298.054688 157.109375 C 298.265625 157.109375 298.515625 157.023438 298.726562 157.066406 C 300.316406 157.277344 301.863281 157.484375 303.453125 157.652344 C 306.382812 157.988281 309.3125 158.324219 312.28125 158.574219 C 315.253906 158.824219 318.308594 158.867188 321.238281 159.285156 C 327.011719 160.121094 332.828125 160.792969 338.4375 162.675781 C 341.15625 163.59375 343.710938 164.851562 345.886719 166.773438 C 347.351562 168.074219 347.851562 169.664062 347.433594 171.503906 C 346.847656 174.183594 345.382812 176.273438 342.871094 177.613281 C 339.484375 179.414062 335.84375 180.542969 332.117188 181.296875 C 327.429688 182.257812 322.703125 182.925781 317.933594 183.554688 C 314.039062 184.097656 310.066406 184.390625 306.171875 184.851562 C 302.324219 185.269531 298.472656 185.773438 294.667969 186.234375 C 291.359375 186.652344 288.054688 187.195312 284.75 187.488281 C 282.78125 187.65625 280.816406 187.53125 278.847656 187.53125 C 273.828125 187.613281 268.804688 187.53125 263.824219 187.867188 C 259.222656 188.199219 254.621094 188.828125 250.140625 190 C 242.191406 192.09375 234.113281 193.847656 226.207031 196.066406 C 219.21875 197.992188 212.355469 200.417969 206.203125 204.4375 C 205.03125 205.191406 204.113281 206.402344 203.148438 207.492188 C 202.523438 208.160156 202.5625 208.996094 203.234375 209.625 C 204.445312 210.714844 205.578125 211.96875 206.957031 212.722656 C 209.636719 214.144531 212.566406 214.773438 215.621094 214.941406 C 218.089844 215.066406 220.558594 215.023438 223.027344 215.191406 C 224.742188 215.316406 226.414062 215.734375 228.132812 216.027344 C 228.132812 216.152344 228.171875 216.238281 228.171875 216.363281 C 227.628906 216.488281 227.125 216.738281 226.582031 216.738281 C 221.8125 216.863281 217 217.367188 212.230469 216.53125 C 208.378906 215.859375 204.65625 215.023438 201.769531 211.96875 C 199.425781 209.542969 199.300781 207.367188 201.476562 204.730469 C 204.277344 201.339844 208.128906 199.664062 212.019531 197.949219 C 212.984375 197.53125 213.988281 197.15625 214.867188 196.527344 C 212.019531 197.15625 209.175781 197.699219 206.328125 198.453125 C 201.390625 199.75 196.371094 200.878906 191.515625 202.554688 C 185.15625 204.769531 178.960938 207.367188 172.726562 209.917969 C 170.761719 210.714844 169.128906 212.050781 167.746094 213.640625 C 166.535156 214.980469 166.535156 215.820312 167.707031 217.242188 C 169.757812 219.710938 172.519531 220.964844 175.363281 222.179688 C 179.128906 223.769531 183.148438 224.480469 187.164062 225.148438 C 191.433594 225.863281 195.617188 226.867188 199.84375 227.746094 C 200.679688 227.910156 201.515625 228.078125 202.3125 228.246094 C 202.3125 228.332031 202.3125 228.457031 202.3125 228.539062 C 201.558594 228.539062 200.804688 228.625 200.050781 228.539062 C 193.984375 227.746094 187.917969 226.992188 181.890625 226.027344 C 177.289062 225.277344 172.894531 223.769531 168.960938 221.214844 C 167.664062 220.378906 166.574219 219.207031 165.570312 218.035156 C 164.023438 216.277344 164.066406 214.355469 165.570312 212.554688 C 167.414062 210.292969 169.628906 208.410156 172.394531 207.324219 C 179.214844 204.644531 185.910156 201.589844 192.898438 199.375 C 199.59375 197.238281 206.582031 195.898438 213.445312 194.351562 C 218.800781 193.136719 224.199219 192.007812 229.597656 190.960938 C 231.773438 190.542969 233.988281 190.335938 236.207031 189.875 C 233.90625 189.875 231.644531 189.75 229.34375 189.914062 C 225.453125 190.167969 221.5625 190.542969 217.667969 190.921875 C 216.539062 191.046875 215.410156 191.253906 214.28125 191.421875 C 210.515625 192.007812 206.707031 192.59375 202.941406 193.179688 C 200.847656 193.515625 198.753906 193.808594 196.621094 194.140625 C 193.316406 194.644531 190.007812 195.148438 186.746094 195.691406 C 183.355469 196.277344 179.964844 196.902344 176.617188 197.617188 C 169.628906 199.121094 162.640625 200.753906 155.613281 202.175781 C 152.515625 202.804688 149.335938 202.886719 146.238281 203.472656 C 139.460938 204.730469 132.640625 205.984375 125.945312 207.617188 C 120.210938 208.996094 114.476562 210.628906 108.914062 212.597656 C 104.101562 214.3125 99.371094 216.363281 95.394531 219.792969 C 94.265625 220.757812 94.097656 221.132812 94.683594 222.515625 C 95.6875 224.773438 97.40625 226.40625 99.496094 227.535156 C 101.632812 228.707031 103.847656 229.710938 106.109375 230.589844 C 110.921875 232.429688 115.734375 234.3125 120.671875 235.863281 C 123.558594 236.785156 126.695312 236.824219 129.585938 237.660156 C 134.105469 238.960938 138.789062 238.792969 143.351562 239.460938 C 146.78125 239.964844 150.171875 240.675781 153.605469 241.09375 C 157.246094 241.511719 160.886719 241.804688 164.527344 241.972656 C 172.9375 242.390625 181.304688 242.726562 189.714844 242.976562 C 195.574219 243.144531 201.433594 243.058594 207.292969 243.144531 C 211.351562 243.226562 215.410156 243.394531 219.511719 243.480469 C 222.648438 243.5625 225.746094 243.519531 228.882812 243.5625 C 233.320312 243.605469 237.796875 243.6875 242.234375 243.773438 C 248.382812 243.898438 254.535156 244.0625 260.6875 244.273438 C 263.40625 244.355469 266.210938 244.316406 268.890625 244.734375 C 277.007812 246.113281 285.167969 245.402344 293.285156 246.113281 C 296.421875 246.40625 299.5625 246.742188 302.699219 247.035156 C 303.621094 247.121094 304.5 247.203125 305.421875 247.246094 C 313.453125 247.871094 321.449219 248.667969 329.441406 249.964844 C 334.546875 250.800781 339.566406 251.929688 344.546875 253.355469 C 347.140625 254.105469 349.484375 255.320312 351.410156 257.289062 C 352.582031 258.5 352.875 259.796875 352.328125 261.347656 C 351.492188 263.691406 349.984375 265.40625 347.601562 266.117188 C 344.839844 266.914062 342.035156 267.625 339.191406 268.125 C 335.171875 268.796875 331.15625 269.253906 327.097656 269.675781 C 324.585938 269.925781 321.992188 269.882812 319.480469 270.050781 C 315.714844 270.261719 311.988281 270.554688 308.222656 270.761719 C 304.582031 270.972656 300.941406 271.265625 297.300781 271.390625 C 295 271.472656 292.65625 271.265625 290.355469 271.179688 C 286.964844 271.054688 283.578125 270.972656 280.230469 270.71875 C 276.421875 270.46875 272.613281 270.050781 268.804688 269.507812 C 269.222656 269.464844 269.640625 269.339844 270.0625 269.339844 C 275.542969 269.382812 281.023438 269.589844 286.464844 269.421875 C 291.570312 269.253906 296.675781 268.796875 301.78125 268.210938 C 305.796875 267.75 309.8125 267.121094 313.789062 266.328125 C 317.011719 265.65625 320.148438 264.609375 323.332031 263.730469 C 324.796875 263.3125 326.257812 262.851562 327.722656 262.476562 C 329.355469 262.058594 330.652344 261.304688 331.324219 259.632812 C 331.699219 258.667969 331.574219 257.875 330.820312 257.164062 C 328.726562 255.152344 326.132812 253.816406 323.414062 252.976562 C 320.988281 252.222656 318.394531 251.929688 315.839844 251.554688 C 308.894531 250.550781 301.90625 249.589844 294.957031 248.710938 C 289.644531 248.039062 284.289062 247.578125 278.972656 246.910156 C 275.585938 246.492188 272.238281 245.863281 268.890625 245.402344 C 268.136719 245.277344 267.382812 245.320312 266.628906 245.320312 C 259.347656 245.320312 252.109375 245.363281 244.828125 245.363281 C 240.390625 245.363281 235.914062 245.234375 231.480469 245.109375 C 224.492188 244.941406 217.503906 244.734375 210.515625 244.648438 C 203.945312 244.523438 197.375 244.609375 190.761719 244.441406 C 182.269531 244.273438 173.730469 244.0625 165.238281 243.6875 C 159.921875 243.4375 154.566406 243.1875 149.335938 242.308594 C 144.148438 241.46875 138.875 241.34375 133.726562 240.507812 C 125.230469 239.167969 116.652344 238.082031 108.660156 234.441406 C 105.273438 232.890625 101.589844 231.84375 98.199219 230.214844 C 95.230469 228.789062 92.761719 226.613281 91.421875 223.558594 C 89.832031 219.917969 90.667969 218.746094 93.011719 216.78125 C 96.316406 214.0625 100.167969 212.386719 104.015625 210.628906 C 109.664062 208.035156 115.773438 207.03125 121.675781 205.398438 C 128.289062 203.558594 135.109375 202.804688 141.84375 201.757812 C 145.695312 201.171875 149.628906 200.921875 153.476562 200.378906 C 156.910156 199.917969 160.300781 199.332031 163.6875 198.703125 C 167.746094 197.992188 171.808594 197.238281 175.867188 196.484375 C 176.324219 196.402344 176.746094 196.277344 177.164062 196.191406 C 177.164062 196.277344 177.164062 196.191406 177.164062 196.066406 Z M 50.203125 8.054688 C 50.453125 9.476562 49.828125 10.3125 48.863281 10.941406 C 48.234375 11.316406 47.609375 11.695312 46.898438 11.820312 C 42.710938 12.617188 38.570312 13.578125 34.386719 14.078125 C 27.773438 14.875 21.246094 15.921875 14.925781 18.140625 C 12.039062 19.183594 9.234375 20.355469 6.851562 22.28125 C 3.085938 25.335938 3.125 30.023438 7.269531 32.367188 C 8.484375 33.035156 9.820312 33.578125 11.203125 33.832031 C 18.359375 35.296875 25.679688 35.335938 33.003906 35.464844 C 38.738281 35.546875 44.46875 35.335938 50.203125 35.296875 C 53.007812 35.253906 55.851562 35.296875 58.65625 35.296875 C 55.433594 34.625 52.253906 34.039062 49.03125 33.453125 C 43.96875 32.535156 38.945312 31.65625 33.882812 30.734375 C 30.703125 30.148438 28.316406 28.390625 26.558594 25.714844 C 25.054688 23.453125 25.808594 20.398438 28.234375 19.144531 C 29.15625 18.683594 30.199219 18.304688 31.246094 18.140625 C 37.105469 17.132812 43.003906 16.214844 48.90625 15.167969 C 49.867188 15 50.789062 14.582031 51.667969 14.207031 C 52.503906 13.871094 52.796875 13.117188 52.714844 12.238281 C 52.546875 10.566406 51.710938 9.269531 50.203125 8.054688 Z M 50.578125 96.015625 C 50.578125 95.886719 50.578125 95.761719 50.621094 95.636719 C 48.90625 95.136719 47.191406 94.675781 45.515625 94.171875 C 40.453125 92.707031 35.429688 91.078125 30.285156 89.863281 C 26.433594 88.941406 23.128906 87.4375 20.324219 84.546875 C 17.101562 81.242188 18.316406 76.179688 21.957031 74.296875 C 22.542969 74.003906 23.128906 73.667969 23.671875 73.332031 C 23.628906 73.25 23.589844 73.125 23.546875 73.039062 C 21.035156 73.753906 18.527344 74.464844 16.015625 75.214844 C 12.792969 76.179688 9.820312 77.726562 7.019531 79.570312 C 4.296875 81.367188 4.214844 85.59375 6.808594 87.601562 C 8.734375 89.109375 10.785156 90.363281 13.210938 90.949219 C 13.964844 91.117188 14.675781 91.367188 15.34375 91.703125 C 18.105469 93.125 21.078125 93.796875 24.089844 94.089844 C 28.484375 94.550781 32.878906 94.84375 37.273438 95.136719 C 41.75 95.511719 46.144531 95.722656 50.578125 96.015625 Z M 316.800781 267.664062 C 316.800781 267.789062 316.800781 267.917969 316.84375 268.042969 C 320.277344 267.707031 323.75 267.5 327.136719 267.039062 C 331.070312 266.492188 335.003906 265.824219 338.9375 265.027344 C 341.40625 264.527344 343.875 263.816406 346.261719 262.980469 C 347.097656 262.6875 347.808594 261.847656 348.480469 261.136719 C 348.898438 260.71875 348.816406 260.175781 348.269531 259.796875 C 347.433594 259.210938 346.679688 258.417969 345.71875 258.082031 C 342.914062 257.078125 340.027344 256.15625 337.179688 255.320312 C 335.589844 254.859375 333.960938 254.527344 332.367188 254.148438 C 332.285156 254.273438 332.203125 254.398438 332.117188 254.527344 C 332.453125 254.777344 332.828125 254.945312 333.121094 255.238281 C 334.753906 256.828125 335.046875 258.835938 334.125 260.886719 C 332.996094 263.398438 330.90625 264.527344 328.394531 265.070312 C 324.503906 265.949219 320.652344 266.828125 316.800781 267.664062 Z M 235.957031 186.988281 C 235.957031 187.195312 235.957031 187.40625 235.957031 187.574219 C 241.019531 186.988281 246.167969 188.074219 250.140625 186.988281 C 246.125 186.988281 241.019531 186.988281 235.957031 186.988281 Z M 235.957031 186.988281 "/></g></g><mask id="49064a526a"><g filter="url(#e8e7303b6e)"><rect x="0" width="1024.5" y="0" height="576" style="fill:#000000;fill-opacity:0.15;stroke:none;"/></g></mask></g></g><g mask="url(#7a995c29ed)" transform="matrix(1,0,0,1,424,396)"><g clip-path="url(#3572a925c8)"><path style=" stroke:none;fill-rule:nonzero;fill:#8750f7;fill-opacity:1;" d="M 322.347656 76.105469 C 317.730469 76.105469 313.113281 76.035156 308.566406 76.105469 C 306.1875 76.171875 303.8125 76.511719 301.367188 76.511719 C 291.453125 76.511719 281.542969 76.511719 271.628906 76.441406 C 267.011719 76.441406 262.394531 76.441406 257.777344 76.171875 C 250.78125 75.832031 243.789062 75.222656 237.066406 72.855469 C 233.265625 71.5 230.414062 69.265625 230.550781 64.726562 C 230.617188 62.832031 229.191406 62.425781 227.765625 62.15625 C 218.871094 60.257812 209.839844 59.785156 200.742188 59.851562 C 193.953125 59.917969 187.160156 59.851562 180.371094 59.445312 C 175.074219 59.175781 169.78125 58.160156 164.414062 57.753906 C 157.898438 57.277344 151.515625 56.195312 145.269531 54.164062 C 142.007812 53.082031 138.953125 51.660156 136.78125 48.8125 C 134.269531 45.496094 135.355469 40.824219 138.953125 38.722656 C 143.84375 35.878906 149.070312 36.152344 154.367188 36.285156 C 157.152344 36.355469 159.933594 36.625 162.648438 36.761719 C 164.824219 36.828125 167.878906 34.863281 168.355469 32.765625 C 168.558594 31.816406 168.082031 30.464844 167.472656 29.582031 C 164.414062 25.453125 160.003906 23.21875 155.25 21.726562 C 144.996094 18.613281 134.335938 18.34375 123.746094 18.476562 C 113.761719 18.613281 104.054688 20.304688 94.34375 22.335938 C 83.277344 24.640625 72.210938 27.144531 61.074219 29.3125 C 55.4375 30.394531 49.734375 30.667969 44.03125 31.34375 C 37.511719 32.089844 30.996094 31.816406 24.542969 30.734375 C 21.761719 30.261719 18.910156 30.597656 16.058594 30.597656 C 10.761719 30.53125 6.210938 28.363281 1.867188 25.585938 C 1.527344 25.382812 1.324219 24.976562 1.253906 24.367188 C 2.75 25.046875 4.308594 25.722656 5.734375 26.398438 C 9.402344 28.226562 13.273438 28.769531 17.347656 28.769531 C 21.554688 28.703125 25.835938 29.175781 30.042969 29.109375 C 34.933594 29.042969 39.890625 28.839844 44.777344 28.566406 C 55.640625 28.023438 66.097656 24.84375 76.691406 22.675781 C 88.164062 20.304688 99.574219 18.003906 111.113281 16.308594 C 122.25 14.617188 133.523438 15.089844 144.726562 16.378906 C 151.175781 17.121094 157.355469 18.546875 163.058594 21.726562 C 166.589844 23.691406 169.644531 26.265625 171.410156 30.058594 C 172.089844 31.613281 171.882812 33.035156 171.136719 34.457031 C 169.238281 38.113281 165.503906 40.078125 161.359375 39.808594 C 156.945312 39.539062 152.464844 39.199219 148.050781 39.332031 C 145.609375 39.402344 143.09375 40.078125 140.785156 40.960938 C 137.257812 42.3125 136.507812 46.242188 139.429688 48.609375 C 141.398438 50.167969 143.773438 51.457031 146.152344 52.269531 C 152.398438 54.503906 158.914062 55.246094 165.433594 56.058594 C 181.050781 58.089844 196.804688 57.683594 212.488281 57.957031 C 217.921875 58.023438 223.351562 59.039062 228.714844 59.851562 C 231.566406 60.257812 232.722656 61.613281 232.925781 64.390625 C 233.128906 67.570312 235.097656 69.195312 237.746094 69.941406 C 241.546875 71.023438 245.351562 71.972656 249.289062 72.449219 C 255.332031 73.125 261.441406 73.394531 267.554688 73.667969 C 276.652344 74.140625 285.75 74.546875 294.917969 74.75 C 300.484375 74.886719 305.984375 74.410156 311.550781 74.480469 C 314.878906 74.480469 318.273438 74.953125 321.601562 75.222656 C 321.875 75.222656 322.144531 75.425781 322.347656 75.5625 C 322.347656 75.902344 322.347656 75.96875 322.347656 76.105469 Z M 322.347656 76.105469 "/><g clip-rule="nonzero" clip-path="url(#fc89477a72)"><path style=" stroke:none;fill-rule:nonzero;fill:#8750f7;fill-opacity:1;" d="M 551.710938 59.105469 C 553.542969 65.066406 552.050781 68.25 547.09375 70.753906 C 541.796875 73.464844 535.957031 74.140625 530.1875 75.15625 C 523.191406 76.375 516.199219 77.253906 509.070312 76.917969 C 508.121094 76.847656 507.238281 76.847656 506.285156 76.78125 C 506.152344 76.78125 505.945312 76.644531 505.402344 76.308594 C 506.558594 76.105469 507.441406 75.832031 508.253906 75.832031 C 516.335938 75.902344 524.210938 74.480469 531.953125 72.582031 C 536.773438 71.433594 541.457031 69.601562 546.007812 67.773438 C 547.296875 67.234375 548.519531 65.8125 549.199219 64.457031 C 550.554688 61.679688 548.042969 59.039062 544.445312 57.414062 C 541.320312 56.058594 537.859375 55.316406 534.601562 54.300781 C 524.347656 51.183594 513.753906 51.589844 503.230469 51.183594 C 496.101562 50.914062 488.972656 50.441406 481.84375 49.558594 C 476.480469 48.949219 471.183594 47.730469 465.886719 46.578125 C 463.441406 46.039062 461.066406 45.089844 458.824219 43.9375 C 455.496094 42.3125 455.226562 38.519531 458.417969 36.625 C 461.878906 34.59375 465.546875 33.035156 469.621094 32.765625 C 471.792969 32.628906 474.035156 32.292969 476.207031 32.089844 C 476.75 32.019531 477.363281 32.292969 477.90625 32.425781 C 477.90625 32.628906 477.90625 32.832031 477.90625 33.035156 C 475.257812 33.578125 472.539062 33.917969 469.960938 34.730469 C 466.632812 35.8125 463.441406 37.234375 460.320312 38.722656 C 458.6875 39.539062 458.824219 40.757812 460.589844 41.433594 C 462.628906 42.246094 464.730469 42.992188 466.835938 43.601562 C 477.023438 46.308594 487.410156 47.390625 497.867188 48.070312 C 503.367188 48.40625 508.867188 48.339844 514.296875 48.40625 C 525.09375 48.476562 535.414062 50.777344 545.464844 54.570312 C 549.46875 58.363281 554.96875 57.414062 559.722656 58.972656 C 563.1875 60.121094 566.242188 61.546875 567.9375 65 C 569.566406 68.382812 569.09375 71.636719 567.125 74.613281 C 565.425781 77.1875 562.980469 78.746094 560.265625 80.03125 C 552.457031 83.6875 544.175781 85.3125 535.753906 85.585938 C 527.402344 85.855469 518.984375 85.449219 510.632812 85.246094 C 508.933594 85.179688 507.304688 84.773438 505.605469 84.5 C 505.605469 84.367188 505.605469 84.164062 505.605469 84.027344 C 506.355469 83.960938 507.101562 83.824219 507.914062 83.824219 C 515.929688 83.824219 524.007812 84.296875 531.953125 83.6875 C 541.867188 82.875 551.777344 81.113281 560.605469 75.96875 C 562.304688 74.953125 564 73.328125 564.949219 71.636719 C 566.648438 68.585938 565.15625 64.660156 561.828125 63.035156 C 558.839844 61.613281 555.445312 60.527344 551.710938 59.105469 Z M 551.710938 59.105469 "/></g><path style=" stroke:none;fill-rule:nonzero;fill:#8750f7;fill-opacity:1;" d="M 472.132812 68.519531 C 463.578125 68.382812 454.953125 68.25 446.398438 68.046875 C 439.269531 67.84375 432.140625 67.503906 424.945312 67.300781 C 417.949219 67.097656 411.023438 66.691406 404.03125 66.691406 C 389.363281 66.691406 374.628906 66.691406 359.964844 67.097656 C 346.722656 67.4375 333.484375 68.25 320.242188 68.859375 C 305.578125 69.46875 290.910156 70.210938 276.246094 70.617188 C 268.707031 70.820312 261.105469 70.347656 253.703125 68.453125 C 249.695312 67.4375 246.574219 65.40625 246.640625 60.191406 C 246.640625 56.128906 243.925781 53.757812 239.511719 53.757812 C 231.769531 53.757812 224.097656 53.960938 216.359375 53.960938 C 211.46875 53.960938 206.648438 53.824219 201.761719 53.757812 C 200.46875 53.757812 199.179688 53.757812 197.890625 53.757812 C 197.890625 53.488281 197.820312 53.285156 197.820312 53.011719 C 199.925781 52.675781 202.03125 51.996094 204.136719 51.996094 C 213.777344 51.929688 223.351562 51.996094 232.992188 52.066406 C 235.710938 52.066406 238.425781 51.996094 241.074219 52.269531 C 245.554688 52.808594 247.796875 55.179688 248.40625 59.648438 C 249.085938 64.523438 250.445312 65.878906 255.46875 66.691406 C 266.058594 68.382812 276.652344 68.65625 287.378906 67.910156 C 297.972656 67.164062 308.566406 66.894531 319.15625 66.351562 C 327.507812 65.878906 335.929688 65.203125 344.28125 64.863281 C 354.804688 64.457031 365.394531 64.253906 375.921875 64.117188 C 389.230469 63.914062 402.605469 63.644531 415.914062 63.914062 C 424.808594 64.117188 433.769531 65.203125 442.664062 65.8125 C 445.109375 65.945312 447.621094 65.675781 450.066406 65.878906 C 456.992188 66.421875 463.917969 67.097656 470.84375 67.773438 C 471.386719 67.84375 471.863281 68.113281 472.40625 68.316406 C 472.269531 68.316406 472.199219 68.453125 472.132812 68.519531 Z M 472.132812 68.519531 "/><path style=" stroke:none;fill-rule:nonzero;fill:#8750f7;fill-opacity:1;" d="M 169.710938 47.664062 C 173.855469 48.882812 177.996094 50.371094 182.207031 51.253906 C 186.414062 52.132812 190.828125 52.335938 195.175781 53.082031 C 194.359375 53.285156 193.542969 53.554688 192.730469 53.621094 C 184.921875 54.230469 177.453125 52.675781 170.1875 49.898438 C 169.507812 49.625 168.828125 49.289062 168.285156 48.8125 C 166.859375 47.664062 166.859375 45.632812 168.488281 44.820312 C 169.984375 44.074219 171.679688 43.328125 173.308594 43.261719 C 180.507812 42.855469 187.570312 41.570312 194.359375 39.128906 C 195.851562 38.589844 197.210938 37.707031 198.636719 36.964844 C 199.789062 36.355469 200.0625 35.40625 199.519531 34.121094 C 197.957031 30.394531 195.105469 27.957031 191.777344 25.925781 C 181.390625 19.628906 170.253906 15.835938 158.167969 14.414062 C 149.273438 13.398438 140.449219 11.910156 131.484375 12.722656 C 125.101562 13.332031 118.71875 14.074219 112.40625 14.820312 C 104.800781 15.699219 97.265625 16.582031 89.726562 17.527344 C 84.703125 18.207031 79.679688 19.289062 74.585938 19.695312 C 67.929688 20.238281 61.277344 21.117188 54.488281 20.507812 C 50.34375 20.101562 46.136719 20.441406 41.859375 20.035156 C 42.332031 19.898438 42.808594 19.628906 43.285156 19.628906 C 47.96875 19.492188 52.652344 19.492188 57.269531 19.289062 C 61.34375 19.085938 65.488281 18.882812 69.5625 18.410156 C 74.246094 17.867188 78.929688 17.054688 83.546875 16.308594 C 89.320312 15.292969 95.023438 14.007812 100.792969 13.195312 C 106.90625 12.316406 113.152344 11.773438 119.332031 11.097656 C 122.792969 10.691406 126.324219 10.351562 129.789062 9.945312 C 136.238281 9.132812 142.6875 9.132812 149.136719 9.945312 C 154.84375 10.691406 160.476562 11.773438 166.179688 12.449219 C 173.855469 13.398438 180.777344 16.378906 187.570312 19.832031 C 191.914062 22.066406 196.191406 24.300781 199.585938 27.957031 C 205.289062 34.121094 204.203125 39.0625 196.328125 41.773438 C 189.128906 44.277344 181.730469 45.699219 174.125 45.902344 C 172.699219 45.96875 171.339844 46.445312 169.914062 46.78125 C 169.78125 47.121094 169.78125 47.390625 169.710938 47.664062 Z M 169.710938 47.664062 "/><g clip-rule="nonzero" clip-path="url(#c31e2e4cb0)"><path style=" stroke:none;fill-rule:nonzero;fill:#8750f7;fill-opacity:1;" d="M 315.21875 2.359375 C 311.824219 0.398438 309.515625 2.632812 307.070312 4.257812 C 305.78125 5.136719 305.578125 6.21875 306.800781 7.441406 C 309.175781 9.808594 312.300781 10.351562 315.355469 11.027344 C 318.75 11.773438 322.210938 12.382812 325.675781 12.925781 C 329.816406 13.601562 333.890625 14.414062 338.03125 14.753906 C 352.496094 15.902344 367.027344 16.988281 381.554688 18.003906 C 390.585938 18.613281 399.617188 19.019531 408.648438 19.628906 C 412.449219 19.898438 416.253906 20.441406 419.988281 20.984375 C 422.296875 21.320312 423.925781 22.742188 423.992188 24.234375 C 424.0625 25.789062 422.160156 28.023438 420.191406 28.566406 C 417.542969 29.246094 414.894531 29.652344 412.3125 30.464844 C 409.054688 31.480469 405.726562 32.5625 403.285156 35.203125 C 401.722656 36.964844 401.859375 38.722656 403.757812 40.011719 C 404.84375 40.757812 406.136719 41.230469 407.425781 41.703125 C 410.210938 42.71875 412.992188 43.667969 415.777344 44.617188 C 415.980469 44.683594 416.117188 44.886719 416.183594 45.496094 C 414.828125 45.292969 413.402344 45.15625 412.042969 44.820312 C 408.917969 44.007812 405.59375 43.53125 402.742188 42.109375 C 398.667969 40.078125 398.667969 35.339844 402.199219 32.5625 C 406 29.515625 410.480469 28.09375 415.167969 27.144531 C 416.523438 26.875 417.8125 26.671875 419.105469 26.195312 C 419.988281 25.925781 420.664062 25.25 421.480469 24.773438 C 421.414062 24.570312 421.414062 24.300781 421.34375 24.097656 C 420.394531 23.894531 419.445312 23.488281 418.492188 23.421875 C 411.363281 22.878906 404.234375 22.472656 397.105469 21.929688 C 388.6875 21.320312 380.265625 20.507812 371.847656 19.96875 C 363.699219 19.425781 355.484375 19.085938 347.265625 18.476562 C 342.378906 18.140625 337.421875 17.664062 332.601562 16.851562 C 327.847656 16.105469 323.300781 14.683594 318.546875 13.941406 C 314.8125 13.332031 311.144531 12.722656 307.816406 10.894531 C 306.800781 10.351562 305.917969 9.539062 305.238281 8.660156 C 303.609375 6.625 303.8125 4.730469 305.984375 3.375 C 307.816406 2.226562 309.921875 1.277344 311.960938 0.734375 C 312.910156 0.464844 314.199219 1.34375 315.285156 1.75 C 315.285156 1.886719 315.21875 2.089844 315.21875 2.359375 Z M 315.21875 2.359375 "/></g><path style=" stroke:none;fill-rule:nonzero;fill:#8750f7;fill-opacity:1;" d="M 463.171875 31.410156 C 459.777344 30.53125 456.515625 31.546875 453.257812 32.222656 C 448.707031 33.105469 444.160156 33.644531 439.675781 34.527344 C 435.398438 35.339844 432.207031 38.183594 428.882812 40.6875 C 427.796875 41.5 427.726562 42.71875 428.542969 43.601562 C 429.898438 45.023438 431.324219 46.375 432.957031 47.390625 C 437.574219 50.101562 442.867188 50.644531 447.960938 51.726562 C 456.921875 53.621094 465.953125 53.148438 475.054688 53.351562 C 482.792969 53.488281 490.601562 53.214844 498.136719 55.585938 C 500.378906 56.261719 502.550781 57.414062 504.65625 58.566406 C 506.152344 59.378906 507.167969 60.800781 506.898438 62.695312 C 506.625 64.660156 505.402344 65.8125 503.570312 66.488281 C 497.390625 68.789062 491.078125 68.859375 484.625 67.910156 C 483.742188 67.773438 482.929688 67.570312 482.046875 67.367188 C 482.046875 67.164062 482.046875 67.03125 482.046875 66.828125 C 482.792969 66.757812 483.539062 66.625 484.285156 66.554688 C 488.972656 66.082031 493.726562 65.675781 498.410156 65.066406 C 499.835938 64.863281 501.261719 64.253906 502.621094 63.644531 C 504.25 62.96875 504.453125 61.816406 502.890625 61.003906 C 500.378906 59.648438 497.664062 58.160156 494.945312 57.820312 C 487.953125 57.007812 480.960938 56.535156 473.964844 56.464844 C 461.539062 56.332031 449.183594 56.058594 437.164062 52.605469 C 434.3125 51.792969 431.664062 50.238281 428.949219 48.949219 C 428.40625 48.679688 428 48.203125 427.523438 47.796875 C 423.382812 43.871094 423.789062 40.148438 428.40625 36.828125 C 434.246094 32.496094 440.765625 30.800781 447.960938 30.734375 C 452.035156 30.667969 456.042969 30.191406 460.113281 30.058594 C 461.203125 29.988281 462.355469 30.53125 463.511719 30.734375 C 463.304688 30.9375 463.238281 31.140625 463.171875 31.410156 Z M 463.171875 31.410156 "/><path style=" stroke:none;fill-rule:nonzero;fill:#8750f7;fill-opacity:1;" d="M 336.878906 72.042969 C 338.644531 71.839844 340.410156 71.429688 342.175781 71.363281 C 350.730469 71.160156 359.351562 70.890625 367.910156 71.023438 C 379.042969 71.160156 390.179688 71.566406 401.316406 72.109375 C 409.460938 72.515625 417.679688 73.191406 425.824219 73.9375 C 431.664062 74.480469 437.4375 75.359375 443.207031 75.96875 C 447.757812 76.441406 452.308594 76.578125 456.789062 77.1875 C 464.800781 78.339844 472.746094 79.761719 480.757812 81.046875 C 484.285156 81.589844 487.886719 81.925781 491.417969 82.46875 C 491.824219 82.539062 492.164062 82.945312 492.570312 83.148438 C 492.230469 83.417969 491.824219 83.890625 491.484375 83.824219 C 488.496094 83.554688 485.507812 83.28125 482.523438 82.875 C 471.792969 81.519531 461.269531 79.152344 450.40625 78.542969 C 442.121094 78.066406 433.90625 76.714844 425.621094 75.902344 C 421.480469 75.496094 417.269531 75.292969 413.128906 75.019531 C 404.097656 74.480469 395.066406 73.9375 386.039062 73.464844 C 383.457031 73.328125 380.878906 73.328125 378.296875 73.328125 C 368.316406 73.125 358.335938 72.988281 348.355469 72.855469 C 344.550781 72.785156 340.75 72.855469 337.015625 72.855469 C 336.945312 72.582031 336.945312 72.3125 336.878906 72.042969 Z M 336.878906 72.042969 "/><path style=" stroke:none;fill-rule:nonzero;fill:#8750f7;fill-opacity:1;" d="M 123.472656 39.808594 C 122.523438 40.011719 121.503906 40.214844 120.554688 40.484375 C 117.363281 41.570312 113.492188 47.796875 114.714844 50.847656 C 115.597656 52.945312 117.632812 54.839844 119.671875 56.058594 C 123.335938 58.160156 127.140625 60.121094 131.214844 61.34375 C 136.917969 63.035156 142.824219 63.914062 148.664062 65.132812 C 156.132812 66.757812 163.667969 67.773438 171.339844 67.773438 C 175.074219 67.773438 178.808594 68.179688 182.542969 68.453125 C 182.816406 68.453125 183.085938 68.585938 183.359375 68.65625 C 183.359375 68.859375 183.359375 69.0625 183.292969 69.265625 C 181.117188 69.265625 179.015625 69.398438 176.839844 69.265625 C 168.898438 68.789062 160.953125 68.722656 153.078125 67.570312 C 144.316406 66.351562 135.492188 65.609375 127.070312 62.425781 C 122.386719 60.664062 117.90625 58.699219 114.304688 54.976562 C 112.40625 53.011719 111.863281 50.980469 112.132812 48.476562 C 112.675781 44.074219 117.632812 39.402344 122.113281 39.265625 C 122.523438 39.265625 122.929688 39.335938 123.335938 39.335938 C 123.472656 39.46875 123.472656 39.605469 123.472656 39.808594 Z M 123.472656 39.808594 "/></g><mask id="7a995c29ed"><g filter="url(#e8e7303b6e)"><rect x="0" width="1024.5" y="0" height="576" style="fill:#000000;fill-opacity:0.15;stroke:none;"/></g></mask></g><g clip-rule="nonzero" clip-path="url(#fe098ee0a8)"><g mask="url(#dcd3522cf4)" transform="matrix(1,0,0,1,744,-0.000000000000058398)"><g clip-path="url(#d0bbf44c55)"><g clip-rule="nonzero" clip-path="url(#0675b4e029)"><g clip-rule="nonzero" clip-path="url(#1a332a9daf)"><g clip-rule="nonzero" clip-path="url(#6e238c1fab)"><path style=" stroke:none;fill-rule:nonzero;fill:#8750f7;fill-opacity:1;" d="M 355.847656 253.21875 C 348.550781 253.199219 342.183594 249.816406 336.070312 246.382812 C 292.671875 222.597656 251.472656 195.199219 210.789062 167.035156 C 199.738281 159.402344 189.253906 150.601562 179.277344 141.699219 C 167.214844 130.957031 165.777344 116.257812 167.140625 101.011719 C 167.511719 96.828125 170.730469 94.335938 174.761719 93.277344 C 179.050781 92.164062 183.542969 91.414062 187.984375 90.402344 C 193.035156 89.140625 194.625 86.441406 191.269531 82.199219 C 186.847656 76.578125 181.707031 71.359375 175.902344 67.46875 C 165.210938 60.296875 153.492188 54.65625 142.949219 47.585938 C 122.683594 34.21875 102.054688 21.054688 82.8125 6.160156 C 71.613281 -2.238281 62.152344 -13.230469 59.742188 -28.132812 C 58.234375 -35.789062 61.003906 -41.902344 66.527344 -46.835938 C 70.003906 -50.039062 73.113281 -49.0625 74.582031 -44.976562 C 68 -44.738281 63.699219 -38.324219 65.566406 -30.871094 C 66.726562 -26.328125 68.347656 -21.476562 71.089844 -17.644531 C 78.511719 -7.574219 86.957031 1.628906 97.855469 8.496094 C 109.976562 16.179688 121.585938 24.625 133.808594 32.15625 C 143.941406 38.507812 154.898438 43.640625 164.828125 50.296875 C 175.164062 57.007812 184.992188 64.480469 194.613281 72.261719 C 197.105469 74.15625 198.832031 77.527344 199.84375 80.640625 C 202.984375 89.832031 199.855469 95.484375 190.566406 98.113281 C 186.429688 99.328125 181.992188 99.671875 178.007812 100.988281 C 176.628906 101.390625 175.144531 103.277344 174.988281 104.5 C 172.855469 119.898438 178.640625 132.414062 190.808594 141.679688 C 202.820312 150.84375 215.195312 159.800781 227.667969 168.609375 C 241.824219 178.542969 256.335938 188.273438 270.800781 197.75 C 297.28125 215.0625 323.816406 231.964844 350.398438 249.125 C 352.230469 250.355469 354.371094 251.125 356.410156 252.046875 C 356.207031 252.355469 355.898438 252.8125 355.847656 253.21875 Z M 355.847656 253.21875 "/></g></g></g><g clip-rule="nonzero" clip-path="url(#d117ccdb61)"><g clip-rule="nonzero" clip-path="url(#fd5c636073)"><g clip-rule="nonzero" clip-path="url(#217961556b)"><path style=" stroke:none;fill-rule:nonzero;fill:#8750f7;fill-opacity:1;" d="M 339.078125 266.335938 C 336.125 264.800781 332.8125 263.464844 329.960938 261.773438 C 311.726562 251.320312 293.386719 241.015625 275.5625 229.949219 C 260.027344 220.421875 245.414062 209.515625 230.085938 199.683594 C 215.675781 190.460938 200.699219 181.75 185.980469 172.988281 C 162.347656 158.695312 141.734375 140.886719 124.753906 119.3125 C 121.246094 114.96875 118.554688 109.402344 116.683594 103.9375 C 113.492188 94.492188 119.175781 87.671875 129.121094 88.359375 C 132.078125 88.574219 135.136719 89.296875 138.042969 89.25 C 140.542969 89.15625 143.046875 88.398438 146.875 87.644531 C 144.027344 83.960938 142.554688 81.203125 140.164062 79.15625 C 127.386719 68.820312 114.355469 58.53125 101.578125 48.191406 C 82.488281 32.734375 62.632812 18.09375 46.5625 -0.875 C 44.121094 -3.839844 42.394531 -7.210938 41.128906 -10.9375 C 46.011719 -5.671875 50.539062 -0.199219 55.832031 4.457031 C 65.652344 13.253906 75.730469 22.003906 86.117188 30.296875 C 105.765625 45.90625 125.671875 60.804688 145.324219 76.414062 C 149.242188 79.488281 153.3125 83.988281 150.644531 89.285156 C 148.285156 94.125 142.925781 95.183594 137.519531 94.65625 C 134.5625 94.445312 131.554688 93.980469 128.59375 93.765625 C 122.578125 93.496094 119.507812 96.753906 121.890625 102.117188 C 125.136719 109.164062 128.996094 116.621094 134.234375 122.347656 C 145.425781 134.0625 156.921875 145.976562 169.957031 155.601562 C 185.332031 167.019531 202.347656 175.992188 218.695312 186.285156 C 226.742188 191.460938 234.582031 196.941406 242.476562 202.011719 C 261.625 214.40625 280.671875 226.953125 299.972656 239.453125 C 312.855469 247.648438 325.589844 255.742188 338.574219 263.785156 C 339.035156 264.09375 339.390625 264.554688 339.746094 265.011719 C 339.589844 265.574219 339.285156 266.03125 339.078125 266.335938 Z M 339.078125 266.335938 "/></g></g></g></g><mask id="dcd3522cf4"><g filter="url(#e8e7303b6e)"><rect x="0" width="1024.5" y="0" height="576" style="fill:#000000;fill-opacity:0.15;stroke:none;"/></g></mask></g></g></g></svg>