<svg xmlns="http://www.w3.org/2000/svg" xmlns:xlink="http://www.w3.org/1999/xlink" width="500" zoomAndPan="magnify" viewBox="0 0 375 374.999991" height="500" preserveAspectRatio="xMidYMid meet" version="1.2"><defs><clipPath id="48120c71d3"><path d="M 192 53.683594 L 363.53125 53.683594 L 363.53125 321.433594 L 192 321.433594 Z M 192 53.683594 "/></clipPath><clipPath id="1bc4149192"><path d="M 11.78125 53.683594 L 185 53.683594 L 185 321 L 11.78125 321 Z M 11.78125 53.683594 "/></clipPath></defs><g id="27369503e5"><g clip-rule="nonzero" clip-path="url(#48120c71d3)"><path style=" stroke:none;fill-rule:nonzero;fill:#8750f7;fill-opacity:1;" d="M 363.53125 321.421875 L 270.707031 175.773438 L 270.644531 191.582031 L 270.511719 225.871094 L 270.453125 240.714844 L 261.871094 228.601562 L 261.929688 213.757812 L 262.070312 178.128906 L 262.132812 162.316406 L 231.863281 114.820312 L 231.800781 130.632812 L 231.640625 171 L 231.582031 185.84375 L 223.003906 173.730469 L 223.0625 158.886719 L 223.226562 117.175781 L 223.289062 101.367188 L 193.019531 53.867188 L 192.957031 69.679688 L 192.304688 235.140625 L 192.269531 244.496094 C 249.355469 270.136719 306.441406 295.78125 363.53125 321.421875 Z M 363.53125 321.421875 "/></g><g clip-rule="nonzero" clip-path="url(#1bc4149192)"><path style=" stroke:none;fill-rule:nonzero;fill:#172144;fill-opacity:1;" d="M 105.488281 240.0625 L 105.683594 190.933594 L 114.363281 177.546875 L 114.222656 213.175781 L 114.164062 228.019531 Z M 11.78125 320.035156 L 11.78125 320.03125 C 69.070312 294.84375 126.355469 269.652344 183.644531 244.460938 L 183.675781 235.105469 L 184.328125 69.644531 L 184.394531 53.832031 L 153.75 101.09375 L 153.464844 173.457031 L 144.789062 185.5 L 145.066406 114.480469 L 114.425781 161.734375 L 114.363281 177.546875 C 112.265625 180.78125 110.132812 184.070312 110.132812 184.070312 C 107.925781 187.472656 105.683594 190.933594 105.683594 190.933594 L 105.746094 175.121094 L 11.777344 320.035156 Z M 11.78125 320.035156 "/></g></g></svg>